<svg id="artboard" xmlns="http://www.w3.org/2000/svg" viewBox="0 0 240 70" width="240" height="70"><style>.st0{fill:#FEFEFE;}</style><g id="coderdojo_1_"><path d="M94 41.8v6.1c0 2-.5 3.5-1 5-.5 1-1.5 2.5-2.5 3-1 1-3 1.5-5 1.5s-4-.5-5-1.5-2-2-2.5-3c-.5-1.5-1-3-1-5V21.6c0-1.5.5-3.5 1-4.5s1.5-2.5 2.5-3.5 3-1.5 5-1.5 4 .5 5 1.5 2 2 2.5 3.5 1 3 1 4.5v6.1h-6.1v-6.1c0-1-.5-2-1-2.5s-1-.5-1.5-.5c-1 0-1.5 1-2 1.5 0 .5 0 1-.5 1.5v26.3c0 1 .5 2 1 2.5s.5.5 1 .5c1.5 0 2-.5 2-1.5v-7.6H94zm18.7 7.1c0 3-1 5.6-3 7.1-1 1-2.5 1.5-4.5 1.5-4 0-6.1-2-6.6-4.5-.5-1-1-2.5-1-4.5V31.7c0-3 1-5.6 3-7.6 1-1 2.5-1.5 4.5-1.5 4 0 6.1 2 7.1 4 .5 1.5 1 2.5 1 4v16.7l-.5 1.6zm-5.6-16.7c0-1 0-2-1-3-.5-.5-1-.5-1.5-.5-1 0-1.5 1-2 1.5v18.2c0 1 0 2 1 3 .5.5.5.5 1.5.5s1.5-.5 2-1.5V32.2zM132.4 57h-6.1v-2c-1 1-2 1.5-3 2-.5.5-1 .5-1.5.5-1.5 0-3-1-3.5-2-1-1-1-3-1-4V30.2c0-1.5.5-3 1-4s2-2 3.5-2c1 0 2.5.5 3 1.5l1.5 1.5V13.5h6.1V57zm-6.1-25.8c0-1-1-2-2-2s-1.5 1-1.5 2v18.7c0 1 .5 2 1.5 2s2-1 2-2V31.2zm26.3 14.2v4c0 3-1 5.6-3.5 7.1-1 1-2.5 1.5-4.5 1.5-4 0-6.1-2-7.1-4.5-.5-1-1-2.5-1-4.5V32.2c0-3 1-5.6 3.5-7.6 1-1 2.5-1.5 4.5-1.5 4 0 6.1 2 7.1 4 .5 1.5 1 2.5 1 4v9.6h-10.1v7.1c0 1 .5 2 1 3 .5.5.5.5 1.5.5s1.5-.5 2-1.5v-5h5.6v.6zm-10.1-8.1h4.5v-4.5c0-1 0-2-1-3-.5-.5-1-.5-1.5-.5-1 0-1.5 1-2 1.5 0 .5 0 1-.5 1.5v4.5l.5.5zm26.2-6.6h-1.5c-1 0-2 0-3 1s-1.5 2-1.5 3v22.7h-6.1V24.6h6.1v3.5c0-.5.5-1.5 1.5-2.5s2.5-1.5 4.5-1.5v6.6zm2.5 26.8V13h5c6.1 0 9.1 1 11.1 4.5 1.5 3.5 2 9.1 2 17.7s0 14.1-2 17.7c-1.5 3.5-5 4.5-11.1 4.5l-5 .1zm6.6-6.6c2 0 3.5 0 4-2.5.5-1 .5-2.5.5-4.5V26.7c0-2-.5-3.5-.5-4.5-.5-2-2-2.5-4-2.5v31.2zm30.8-1.5c0 3-1 5.6-3 7.1-1 1-2.5 1.5-4.5 1.5-4 0-6.1-2-6.6-4.5-.5-1-1-2.5-1-4.5V32.2c0-3 1-5.6 3-7.6 1-1 2.5-1.5 4.5-1.5 4 0 6.1 2 7.1 4 .5 1.5 1 2.5 1 4v16.7l-.5 1.6zm-5.5-16.7c0-1 0-2-1-3-.5-.5-1-.5-1.5-.5-1 0-1.5 1-2 1.5v18.2c0 1 0 2 1 3 .5.5.5.5 1.5.5s1.5-.5 2-1.5V32.7zm9.5-19.7h6.1v6.1h-6.1V13zm6.1 11.1V58c0 1.5 0 4.5-1 6.6-1 2-2.5 4-6.1 4h-2.5V63h1.5c1 0 1.5-1 1.5-2V24.1h6.6zm19.7 24.8c0 3-1 5.6-3 7.1-1 1-2.5 1.5-4.5 1.5-4 0-6.1-2-6.6-4.5-.5-1-1-2.5-1-4.5V31.7c0-3 1-5.6 3-7.6 1-1 2.5-1.5 4.5-1.5 4 0 6.1 2 7.1 4 .5 1.5 1 2.5 1 4v16.7l-.5 1.6zm-5.6-16.7c0-1 0-2-1-3-.5-.5-1-.5-1.5-.5-1 0-1.5 1-2 1.5v18.2c0 1 0 2 1 3 .5.5.5.5 1.5.5s1.5-.5 2-1.5V32.2z"/><path class="st0" d="M66.2 34.7C66.2 52.5 51.7 67 33.9 67S1.6 52.5 1.6 34.7 16.1 2.4 33.9 2.4c17.9 0 32.3 14.5 32.3 32.3z"/><path d="M34.4 1.4C15.7 1.4 1.1 16.6 1.1 34.7 1.1 53.4 16.2 68 34.4 68c18.7 0 33.3-15.1 33.3-33.3 0-18.6-15.1-33.3-33.3-33.3zm6.1 57.1c0 .5 0 .5-.5.5l-.5.5h-8.1c-.5 0-.5 0-.5-.5l-.5-.5c0-.5 0-.5.5-.5l.5-.5h3V45.9h-3c-.5 0-.5 0-.5-.5l-.5-.5c0-.5 0-.5.5-.5l.5-.5h5v13.6h2v-4c0-.5 0-.5.5-.5l.5-.5c.5 0 .5 0 .5.5l.5.5.1 5zm-6.1-24.3c-8.6 0-15.7 7.1-15.7 15.7s6.6 15.7 15.1 15.7c-17.7 0-31.3-14.1-31.3-31.3S16.1 3 33.3 3h1C42.9 3 50 10.1 50 18.7c.1 8.5-7 15.5-15.6 15.5z"/><path d="M28.9 22.1V10.5c0-.5 0-1 .5-1.5s1-.5 1.5-.5H37c.5 0 1 0 1.5.5s.5 1 .5 1.5v11.6c0 .5 0 1-.5 1.5s-1 .5-1.5.5h-6.1c-.5 0-1 0-1.5-.5s-.5-1-.5-1.5zm8 0V10.5h-6.1v11.6h6.1z"/></g></svg>