<?xml version="1.0" encoding="utf-8"?>
<!-- Generator: Adobe Illustrator 21.1.0, SVG Export Plug-In . SVG Version: 6.00 Build 0)  -->
<svg version="1.1" id="artboard" xmlns="http://www.w3.org/2000/svg" xmlns:xlink="http://www.w3.org/1999/xlink" x="0px" y="0px"
	 viewBox="0 0 240 70" style="enable-background:new 0 0 240 70;" xml:space="preserve">
<style type="text/css">
	.st0{fill:#FEFEFE;}
</style>
<g id="coderdojo_1_">
	<path d="M94,41.8v6.1c0,2-0.5,3.5-1,5c-0.5,1-1.5,2.5-2.5,3c-1,1-3,1.5-5,1.5s-4-0.5-5-1.5s-2-2-2.5-3c-0.5-1.5-1-3-1-5V21.6
		c0-1.5,0.5-3.5,1-4.5s1.5-2.5,2.5-3.5s3-1.5,5-1.5s4,0.5,5,1.5s2,2,2.5,3.5s1,3,1,4.5v6.1h-6.1v-6.1c0-1-0.5-2-1-2.5
		s-1-0.5-1.5-0.5c-1,0-1.5,1-2,1.5c0,0.5,0,1-0.5,1.5v26.3c0,1,0.5,2,1,2.5s0.5,0.5,1,0.5c1.5,0,2-0.5,2-1.5v-7.6
		C86.9,41.8,94,41.8,94,41.8z M112.7,48.9c0,3-1,5.6-3,7.1c-1,1-2.5,1.5-4.5,1.5c-4,0-6.1-2-6.6-4.5c-0.5-1-1-2.5-1-4.5V31.7
		c0-3,1-5.6,3-7.6c1-1,2.5-1.5,4.5-1.5c4,0,6.1,2,7.1,4c0.5,1.5,1,2.5,1,4v16.7L112.7,48.9z M107.1,32.2c0-1,0-2-1-3
		c-0.5-0.5-1-0.5-1.5-0.5c-1,0-1.5,1-2,1.5v18.2c0,1,0,2,1,3c0.5,0.5,0.5,0.5,1.5,0.5s1.5-0.5,2-1.5V32.2z M132.4,57h-6.1v-2
		c-1,1-2,1.5-3,2c-0.5,0.5-1,0.5-1.5,0.5c-1.5,0-3-1-3.5-2c-1-1-1-3-1-4V30.2c0-1.5,0.5-3,1-4s2-2,3.5-2c1,0,2.5,0.5,3,1.5l1.5,1.5
		V13.5h6.1V57z M126.3,31.2c0-1-1-2-2-2s-1.5,1-1.5,2v18.7c0,1,0.5,2,1.5,2s2-1,2-2V31.2z M152.6,45.4v4c0,3-1,5.6-3.5,7.1
		c-1,1-2.5,1.5-4.5,1.5c-4,0-6.1-2-7.1-4.5c-0.5-1-1-2.5-1-4.5V32.2c0-3,1-5.6,3.5-7.6c1-1,2.5-1.5,4.5-1.5c4,0,6.1,2,7.1,4
		c0.5,1.5,1,2.5,1,4v9.6h-10.1v7.1c0,1,0.5,2,1,3c0.5,0.5,0.5,0.5,1.5,0.5s1.5-0.5,2-1.5v-5h5.6V45.4z M142.5,37.3h4.5v-4.5
		c0-1,0-2-1-3c-0.5-0.5-1-0.5-1.5-0.5c-1,0-1.5,1-2,1.5c0,0.5,0,1-0.5,1.5v4.5L142.5,37.3z M168.7,30.7h-1.5c-1,0-2,0-3,1
		s-1.5,2-1.5,3v22.7h-6.1V24.6h6.1v3.5c0-0.5,0.5-1.5,1.5-2.5s2.5-1.5,4.5-1.5V30.7z M171.2,57.5V13h5c6.1,0,9.1,1,11.1,4.5
		c1.5,3.5,2,9.1,2,17.7s0,14.1-2,17.7c-1.5,3.5-5,4.5-11.1,4.5L171.2,57.5L171.2,57.5z M177.8,50.9c2,0,3.5,0,4-2.5
		c0.5-1,0.5-2.5,0.5-4.5V26.7c0-2-0.5-3.5-0.5-4.5c-0.5-2-2-2.5-4-2.5V50.9z M208.6,49.4c0,3-1,5.6-3,7.1c-1,1-2.5,1.5-4.5,1.5
		c-4,0-6.1-2-6.6-4.5c-0.5-1-1-2.5-1-4.5V32.2c0-3,1-5.6,3-7.6c1-1,2.5-1.5,4.5-1.5c4,0,6.1,2,7.1,4c0.5,1.5,1,2.5,1,4v16.7
		L208.6,49.4z M203.1,32.7c0-1,0-2-1-3c-0.5-0.5-1-0.5-1.5-0.5c-1,0-1.5,1-2,1.5v18.2c0,1,0,2,1,3c0.5,0.5,0.5,0.5,1.5,0.5
		s1.5-0.5,2-1.5V32.7z M212.6,13h6.1v6.1h-6.1V13z M218.7,24.1V58c0,1.5,0,4.5-1,6.6c-1,2-2.5,4-6.1,4h-2.5V63h1.5c1,0,1.5-1,1.5-2
		V24.1H218.7z M238.4,48.9c0,3-1,5.6-3,7.1c-1,1-2.5,1.5-4.5,1.5c-4,0-6.1-2-6.6-4.5c-0.5-1-1-2.5-1-4.5V31.7c0-3,1-5.6,3-7.6
		c1-1,2.5-1.5,4.5-1.5c4,0,6.1,2,7.1,4c0.5,1.5,1,2.5,1,4v16.7L238.4,48.9z M232.8,32.2c0-1,0-2-1-3c-0.5-0.5-1-0.5-1.5-0.5
		c-1,0-1.5,1-2,1.5v18.2c0,1,0,2,1,3c0.5,0.5,0.5,0.5,1.5,0.5s1.5-0.5,2-1.5V32.2z"/>
	<g>
		<path class="st0" d="M66.2,34.7C66.2,52.5,51.7,67,33.9,67S1.6,52.5,1.6,34.7S16.1,2.4,33.9,2.4C51.8,2.4,66.2,16.9,66.2,34.7
			L66.2,34.7z"/>
		<path d="M34.4,1.4C15.7,1.4,1.1,16.6,1.1,34.7C1.1,53.4,16.2,68,34.4,68c18.7,0,33.3-15.1,33.3-33.3C67.7,16.1,52.6,1.4,34.4,1.4z
			 M40.5,58.5c0,0.5,0,0.5-0.5,0.5l-0.5,0.5h-8.1c-0.5,0-0.5,0-0.5-0.5l-0.5-0.5c0-0.5,0-0.5,0.5-0.5l0.5-0.5h3V45.9h-3
			c-0.5,0-0.5,0-0.5-0.5l-0.5-0.5c0-0.5,0-0.5,0.5-0.5l0.5-0.5h5v13.6h2v-4c0-0.5,0-0.5,0.5-0.5l0.5-0.5c0.5,0,0.5,0,0.5,0.5
			l0.5,0.5L40.5,58.5L40.5,58.5z M34.4,34.2c-8.6,0-15.7,7.1-15.7,15.7s6.6,15.7,15.1,15.7c-17.7,0-31.3-14.1-31.3-31.3
			S16.1,3,33.3,3h0.5h0.5C42.9,3,50,10.1,50,18.7C50.1,27.2,43,34.2,34.4,34.2z"/>
		<path d="M28.9,22.1V10.5c0-0.5,0-1,0.5-1.5s1-0.5,1.5-0.5H37c0.5,0,1,0,1.5,0.5s0.5,1,0.5,1.5v11.6c0,0.5,0,1-0.5,1.5
			s-1,0.5-1.5,0.5h-6.1c-0.5,0-1,0-1.5-0.5S28.9,22.6,28.9,22.1L28.9,22.1z M36.9,22.1V10.5h-6.1v11.6H36.9z"/>
	</g>
</g>
</svg>
