<svg xmlns="http://www.w3.org/2000/svg" width="574" height="620" viewBox="0 0 574 620"><defs><style>.a{fill:#34495e;}.b{fill:#ad404d;}.c{fill:#d34c56;}.d{fill:#fafafa;}.e{fill:#d82133;}.f{fill:#231815;}.g{fill:#fff;}.h{fill:#f4c27a;}</style></defs><title>アートボード 1</title><path class="a" d="M173.421,170.839a3.844,3.844,0,0,1,3.248-1.472,6.117,6.117,0,0,1,2.156.532,10.643,10.643,0,0,1,2.425,1.514,11.879,11.879,0,0,1,1.886,1.865,6.609,6.609,0,0,1,1.108,1.955,4.22,4.22,0,0,1,.21,1.948,3.7,3.7,0,0,1-.832,1.842l-2.648,3.3-10.2-8.184Zm8.222,6.789a2.145,2.145,0,0,0,.41-.833,2.039,2.039,0,0,0-.031-1.029,3.708,3.708,0,0,0-.606-1.191,7.027,7.027,0,0,0-1.3-1.307,10.127,10.127,0,0,0-1.484-1.005,4.21,4.21,0,0,0-1.361-.484,2.29,2.29,0,0,0-1.225.136,2.727,2.727,0,0,0-1.074.856l-.962,1.2,6.43,5.158Z"/><path class="a" d="M182.382,170.032a4.818,4.818,0,0,1-.552-1.652,3.427,3.427,0,0,1,.139-1.526,3.178,3.178,0,0,1,.846-1.3,3.211,3.211,0,0,1,1.344-.79,3.4,3.4,0,0,1,1.536-.073,4.831,4.831,0,0,1,1.625.627,7.588,7.588,0,0,1,1.612,1.311,7.468,7.468,0,0,1,1.228,1.664,4.837,4.837,0,0,1,.545,1.645,3.217,3.217,0,0,1-1.008,2.824,3.245,3.245,0,0,1-1.333.792,3.331,3.331,0,0,1-1.525.075,4.822,4.822,0,0,1-1.618-.62,7.477,7.477,0,0,1-1.606-1.3A7.56,7.56,0,0,1,182.382,170.032Zm3.47,1.067a3.6,3.6,0,0,0,.875.508,1.816,1.816,0,0,0,.857.131,1.3,1.3,0,0,0,.773-.384,1.334,1.334,0,0,0,.423-.76,1.78,1.78,0,0,0-.087-.867,3.568,3.568,0,0,0-.466-.9,7.3,7.3,0,0,0-.706-.859,7.663,7.663,0,0,0-.831-.751,3.483,3.483,0,0,0-.875-.508,1.885,1.885,0,0,0-.862-.126,1.3,1.3,0,0,0-.785.382,1.275,1.275,0,0,0-.413.762,1.914,1.914,0,0,0,.092.862,3.435,3.435,0,0,0,.466.9,7.537,7.537,0,0,0,.712.865A7.3,7.3,0,0,0,185.853,171.1Z"/><path class="a" d="M186.25,160.883l-1.341-1.671,1.521-1.221,1.341,1.671Zm6.989,9.917a.909.909,0,0,0,.315-.453c.053-.175-.031-.4-.253-.678l-6.134-7.643,1.522-1.221,6.214,7.743a5.99,5.99,0,0,1,.7,1.059,2.163,2.163,0,0,1,.245.942,1.67,1.67,0,0,1-.262.892,3.65,3.65,0,0,1-.845.9,2.425,2.425,0,0,1-.528.33L192.871,171A.959.959,0,0,0,193.238,170.8Z"/><path class="a" d="M191.9,161.644a4.818,4.818,0,0,1-.26-1.722,3.425,3.425,0,0,1,.4-1.479,3.177,3.177,0,0,1,1.058-1.138,3.216,3.216,0,0,1,1.46-.547,3.412,3.412,0,0,1,1.525.191,4.837,4.837,0,0,1,1.493.9,7.6,7.6,0,0,1,1.363,1.567,7.47,7.47,0,0,1,.924,1.85,4.831,4.831,0,0,1,.255,1.714,3.218,3.218,0,0,1-1.478,2.609,3.259,3.259,0,0,1-1.45.551,3.323,3.323,0,0,1-1.515-.188,4.835,4.835,0,0,1-1.488-.889,7.5,7.5,0,0,1-1.358-1.56A7.583,7.583,0,0,1,191.9,161.644Zm3.235,1.648a3.594,3.594,0,0,0,.773.65,1.819,1.819,0,0,0,.822.277,1.3,1.3,0,0,0,.828-.246,1.327,1.327,0,0,0,.548-.675,1.781,1.781,0,0,0,.063-.869,3.6,3.6,0,0,0-.306-.964,7.3,7.3,0,0,0-.548-.967,7.518,7.518,0,0,0-.69-.883,3.49,3.49,0,0,0-.773-.65,1.889,1.889,0,0,0-.828-.273,1.3,1.3,0,0,0-.838.242,1.269,1.269,0,0,0-.538.679,1.913,1.913,0,0,0-.058.865,3.467,3.467,0,0,0,.306.964,7.511,7.511,0,0,0,.553.974A7.314,7.314,0,0,0,195.134,163.292Z"/><path class="a" d="M203.9,151.4a2.82,2.82,0,0,0-.75-.438,2.162,2.162,0,0,0-.8-.148,1.748,1.748,0,0,0-.761.18,2.027,2.027,0,0,0-.945.882,2.75,2.75,0,0,0-.3,1.268,5.268,5.268,0,0,0,.22,1.494,9.445,9.445,0,0,0,.6,1.56,8.766,8.766,0,0,0,.835,1.375,5.16,5.16,0,0,0,1.03,1.056,2.782,2.782,0,0,0,1.18.533,2.029,2.029,0,0,0,1.276-.207,1.777,1.777,0,0,0,1.033-1.4,4.426,4.426,0,0,0-.325-2.207l1.875-.919a8.479,8.479,0,0,1,.594,2.177,5.538,5.538,0,0,1-.072,1.913,3.853,3.853,0,0,1-.716,1.535,3.766,3.766,0,0,1-1.331,1.061,3.962,3.962,0,0,1-2.05.424,4.614,4.614,0,0,1-2-.622,7.08,7.08,0,0,1-1.8-1.516,10.305,10.305,0,0,1-1.47-2.248,10.675,10.675,0,0,1-.9-2.587,7.286,7.286,0,0,1-.113-2.383,4.644,4.644,0,0,1,.717-1.984,3.915,3.915,0,0,1,1.585-1.37,3.829,3.829,0,0,1,1.513-.395,3.94,3.94,0,0,1,1.559.246,4.8,4.8,0,0,1,1.494.909,6.6,6.6,0,0,1,1.307,1.6l-1.875.919A2.894,2.894,0,0,0,203.9,151.4Z"/><path class="a" d="M208.966,152.254a4.812,4.812,0,0,1,.2-1.729,3.422,3.422,0,0,1,.776-1.321,3.177,3.177,0,0,1,1.32-.817,3.213,3.213,0,0,1,1.553-.142,3.4,3.4,0,0,1,1.42.588,4.835,4.835,0,0,1,1.2,1.259,7.586,7.586,0,0,1,.9,1.872,7.505,7.505,0,0,1,.4,2.029,4.834,4.834,0,0,1-.208,1.721,3.216,3.216,0,0,1-2.114,2.125,3.243,3.243,0,0,1-1.544.148,3.313,3.313,0,0,1-1.411-.582,4.819,4.819,0,0,1-1.2-1.25,7.485,7.485,0,0,1-.9-1.863A7.584,7.584,0,0,1,208.966,152.254Zm2.685,2.445a3.584,3.584,0,0,0,.574.832,1.815,1.815,0,0,0,.719.484,1.3,1.3,0,0,0,.863-.018,1.328,1.328,0,0,0,.707-.507,1.787,1.787,0,0,0,.291-.821,3.607,3.607,0,0,0-.04-1.01,7.474,7.474,0,0,0-.273-1.077,7.642,7.642,0,0,0-.432-1.034,3.486,3.486,0,0,0-.575-.832,1.892,1.892,0,0,0-.726-.481,1.3,1.3,0,0,0-.873.011,1.274,1.274,0,0,0-.7.513,1.929,1.929,0,0,0-.285.819,3.46,3.46,0,0,0,.041,1.01,7.4,7.4,0,0,0,.275,1.086A7.317,7.317,0,0,0,211.651,154.7Z"/><path class="a" d="M218.683,146.571l.264,1.292.041-.008a2.659,2.659,0,0,1,.7-1.368,2.223,2.223,0,0,1,1.109-.61,2.585,2.585,0,0,1,1.315.021,2.065,2.065,0,0,1,.932.613,3.627,3.627,0,0,1,.643,1.121,10.115,10.115,0,0,1,.435,1.547l1.167,5.708-1.911.391-1.071-5.241a4.246,4.246,0,0,0-.62-1.659.989.989,0,0,0-1.071-.37,1.226,1.226,0,0,0-1,.851,4.462,4.462,0,0,0,.066,2.108l.994,4.864-1.911.391-1.9-9.279Z"/><path class="a" d="M235.788,151.443a4.291,4.291,0,0,1-.391,1.452,3.038,3.038,0,0,1-.951,1.15,3.007,3.007,0,0,1-1.729.507,3.216,3.216,0,0,1-1.2-.188,2.832,2.832,0,0,1-1.054-.679,3.578,3.578,0,0,1-.77-1.22,5.439,5.439,0,0,1-.337-1.831l-.039-1.135,1.95-.066.02.586a6.484,6.484,0,0,0,.085.876,2.266,2.266,0,0,0,.215.68,1.123,1.123,0,0,0,.393.436,1.087,1.087,0,0,0,.63.144.977.977,0,0,0,.652-.224,1.124,1.124,0,0,0,.319-.533,2.755,2.755,0,0,0,.1-.7q.008-.376,0-.724l-.3-8.824,2.156-.073.3,8.953A11.269,11.269,0,0,1,235.788,151.443Z"/><path class="a" d="M237.711,147.613a3.775,3.775,0,0,1,.458-1.49,2.8,2.8,0,0,1,.841-.91,2.887,2.887,0,0,1,1.087-.441,4.535,4.535,0,0,1,1.183-.066,6,6,0,0,1,1.075.183,2.727,2.727,0,0,1,.97.469,2.241,2.241,0,0,1,.678.869,2.861,2.861,0,0,1,.183,1.4l-.373,4.913q-.048.64-.038,1.229a2.777,2.777,0,0,0,.125.891l-1.973-.149c-.025-.149-.044-.3-.055-.455s-.016-.311-.013-.469a2.545,2.545,0,0,1-1.164.812,3.405,3.405,0,0,1-1.307.158,2.68,2.68,0,0,1-.933-.236,2.024,2.024,0,0,1-.728-.57,2.415,2.415,0,0,1-.448-.916,3.84,3.84,0,0,1-.089-1.275,3.542,3.542,0,0,1,.313-1.308,2.3,2.3,0,0,1,.611-.79,2.244,2.244,0,0,1,.8-.408,6.532,6.532,0,0,1,.889-.181q.445-.058.874-.081a4.058,4.058,0,0,0,.766-.107,1.215,1.215,0,0,0,.545-.28.837.837,0,0,0,.224-.6,1.784,1.784,0,0,0-.052-.675.942.942,0,0,0-.245-.4.916.916,0,0,0-.383-.213,2.532,2.532,0,0,0-.483-.083,1.226,1.226,0,0,0-.929.261,1.7,1.7,0,0,0-.467,1.066Zm4.348,2.259a.844.844,0,0,1-.326.205,2.5,2.5,0,0,1-.408.106c-.144.026-.3.045-.452.058s-.315.031-.473.056a2.912,2.912,0,0,0-.442.113,1.2,1.2,0,0,0-.389.219,1.141,1.141,0,0,0-.283.374,1.618,1.618,0,0,0-.142.6,1.574,1.574,0,0,0,.051.592.925.925,0,0,0,.232.394.957.957,0,0,0,.369.221,1.868,1.868,0,0,0,.448.089,1.388,1.388,0,0,0,.91-.188,1.58,1.58,0,0,0,.512-.577,2.463,2.463,0,0,0,.239-.708q.062-.363.079-.582Z"/><path class="a" d="M248.542,145.857l-.233,1.187.027.005a2.533,2.533,0,0,1,1.1-.921,2.217,2.217,0,0,1,1.254-.109,2.463,2.463,0,0,1,1.334.692A3.391,3.391,0,0,1,252.8,148a5.5,5.5,0,0,1,.267,1.7,9.448,9.448,0,0,1-.185,1.933,8.52,8.52,0,0,1-.542,1.76,5.4,5.4,0,0,1-.873,1.415,3.283,3.283,0,0,1-1.166.873,2.348,2.348,0,0,1-1.419.131,2.211,2.211,0,0,1-1.125-.585,2.65,2.65,0,0,1-.693-1.21l-.027-.005-.866,4.4-1.914-.376,2.468-12.546Zm1.038,7.858a1.886,1.886,0,0,0,.641-.555,3.333,3.333,0,0,0,.462-.89,7.462,7.462,0,0,0,.3-1.08,6.921,6.921,0,0,0,.128-1.114,3.628,3.628,0,0,0-.1-1.019,2.015,2.015,0,0,0-.385-.785,1.206,1.206,0,0,0-.724-.413,1.222,1.222,0,0,0-.839.105,1.96,1.96,0,0,0-.645.573,3.483,3.483,0,0,0-.464.9,7.708,7.708,0,0,0-.3,1.1,6.989,6.989,0,0,0-.128,1.114,3.5,3.5,0,0,0,.1,1,1.85,1.85,0,0,0,.39.758,1.378,1.378,0,0,0,1.571.309Z"/><path class="a" d="M254.73,150.164a3.771,3.771,0,0,1,.794-1.341,2.791,2.791,0,0,1,1.03-.687,2.891,2.891,0,0,1,1.161-.174,4.553,4.553,0,0,1,1.166.213,5.963,5.963,0,0,1,1,.43,2.732,2.732,0,0,1,.833.683,2.239,2.239,0,0,1,.455,1,2.857,2.857,0,0,1-.151,1.4l-1.516,4.688q-.2.611-.325,1.185a2.786,2.786,0,0,0-.087.9l-1.883-.608a4.552,4.552,0,0,1,.053-.455c.025-.152.058-.306.1-.459a2.554,2.554,0,0,1-1.322.516,3.392,3.392,0,0,1-1.308-.153,2.662,2.662,0,0,1-.851-.448,2.027,2.027,0,0,1-.575-.725,2.4,2.4,0,0,1-.22-1,3.851,3.851,0,0,1,.212-1.26,3.552,3.552,0,0,1,.611-1.2,2.294,2.294,0,0,1,.779-.624,2.24,2.24,0,0,1,.876-.208,6.493,6.493,0,0,1,.906.033q.445.048.868.126a4.061,4.061,0,0,0,.77.076,1.205,1.205,0,0,0,.6-.145.836.836,0,0,0,.358-.529,1.777,1.777,0,0,0,.108-.668.944.944,0,0,0-.144-.45.91.91,0,0,0-.323-.3,2.445,2.445,0,0,0-.45-.193,1.224,1.224,0,0,0-.964.035,1.692,1.692,0,0,0-.7.928Zm3.7,3.216a.837.837,0,0,1-.365.123,2.5,2.5,0,0,1-.421.008c-.146-.009-.3-.026-.453-.05s-.313-.043-.473-.057a2.856,2.856,0,0,0-.457.007,1.186,1.186,0,0,0-.429.121,1.135,1.135,0,0,0-.363.3,1.614,1.614,0,0,0-.277.545,1.572,1.572,0,0,0-.089.587.935.935,0,0,0,.133.438.954.954,0,0,0,.307.3,1.851,1.851,0,0,0,.414.191,1.38,1.38,0,0,0,.929.031,1.566,1.566,0,0,0,.633-.44,2.439,2.439,0,0,0,.4-.631q.146-.338.213-.548Z"/><path class="a" d="M265.64,150.992l-.549,1.2.037.017a2.661,2.661,0,0,1,1.375-.69,2.231,2.231,0,0,1,1.255.162,2.593,2.593,0,0,1,1.05.794,2.082,2.082,0,0,1,.39,1.045,3.62,3.62,0,0,1-.143,1.285,10.187,10.187,0,0,1-.562,1.506l-2.428,5.295-1.773-.812,2.229-4.862a4.252,4.252,0,0,0,.479-1.705.988.988,0,0,0-.646-.931,1.226,1.226,0,0,0-1.312.094,4.461,4.461,0,0,0-1.191,1.741l-2.069,4.513-1.773-.813,3.947-8.609Z"/><path class="a" d="M275.787,155.746a5.394,5.394,0,0,1,1.473-.99,3.245,3.245,0,0,1,1.533-.285,3.1,3.1,0,0,1,2.371,1.474,3.153,3.153,0,0,1,.425,1.243,3.828,3.828,0,0,1-.117,1.451,4.983,4.983,0,0,1-.728,1.543,5.253,5.253,0,0,1-1.132,1.246,4.7,4.7,0,0,1-1.207.673,6.007,6.007,0,0,1-1.273.318q-.651.089-1.3.166a13.238,13.238,0,0,0-1.315.222,5.433,5.433,0,0,0-1.332.489l3.757,2.563-1.259,1.846-5.833-3.979a6.964,6.964,0,0,1,1.292-1.469,5.718,5.718,0,0,1,1.37-.85,6.751,6.751,0,0,1,1.476-.446q.769-.141,1.6-.261.426-.064.892-.113a4.914,4.914,0,0,0,.916-.185,3.567,3.567,0,0,0,.873-.4,2.594,2.594,0,0,0,.753-.75,2.324,2.324,0,0,0,.485-1.431,1.258,1.258,0,0,0-.562-1.016,1.041,1.041,0,0,0-.746-.187,1.894,1.894,0,0,0-.784.308,3.945,3.945,0,0,0-.747.644,7.219,7.219,0,0,0-.646.812l-1.543-1.052A8.065,8.065,0,0,1,275.787,155.746Z"/><path class="a" d="M282.546,160.9a6.533,6.533,0,0,1,1.911-1.049,2.946,2.946,0,0,1,1.566-.1,2.971,2.971,0,0,1,2.06,1.776,2.989,2.989,0,0,1,.136,1.568,6.439,6.439,0,0,1-.751,2.05,14.841,14.841,0,0,1-1.838,2.563,15.4,15.4,0,0,1-2.312,2.251,6.441,6.441,0,0,1-1.928,1.059,2.985,2.985,0,0,1-1.571.1,2.85,2.85,0,0,1-2.191-3.34,6.537,6.537,0,0,1,.769-2.059,15.4,15.4,0,0,1,1.886-2.619A14.815,14.815,0,0,1,282.546,160.9Zm-1.633,4.493a9.317,9.317,0,0,0-.851,1.25,3.714,3.714,0,0,0-.458,1.237,1,1,0,0,0,.352.981,1.032,1.032,0,0,0,1.037.217,3.644,3.644,0,0,0,1.162-.631,9.385,9.385,0,0,0,1.11-1.025q.53-.572.888-.988.216-.25.515-.608t.586-.764q.286-.406.536-.832a3.642,3.642,0,0,0,.365-.834,1.835,1.835,0,0,0,.063-.768,1,1,0,0,0-.354-.62.963.963,0,0,0-.66-.254,1.794,1.794,0,0,0-.74.185,4.036,4.036,0,0,0-.771.484,8.727,8.727,0,0,0-.744.652q-.354.348-.664.7c-.207.232-.382.433-.526.6Q281.4,164.786,280.913,165.393Z"/><path class="a" d="M283.623,174.964l6.072-5.683-1.652-1.765,1.431-1.339a3.477,3.477,0,0,0,.745.648,2.212,2.212,0,0,0,.889.334,2.507,2.507,0,0,0,1.019-.078,3.469,3.469,0,0,0,1.131-.588l1.061,1.133-9.362,8.762Z"/><path class="a" d="M295.923,176.563a17.861,17.861,0,0,0-2.758.891,24.57,24.57,0,0,0-2.692,1.308,21.2,21.2,0,0,0-2.331,1.506l-1.273-1.655a22.4,22.4,0,0,1,5-2.573,21.644,21.644,0,0,1,5.215-1.212l-2.781-3.615,1.917-1.475,4,5.205-1.771,1.363A9.054,9.054,0,0,0,295.923,176.563Z"/><polygon class="b" points="10.779 608.612 26.231 609.659 25.532 620 10.055 619.141 10.779 608.612"/><polygon class="b" points="21.856 588.029 37.107 589.444 35.723 610.103 20.423 609.063 21.856 588.029"/><polygon class="b" points="76.803 341.032 90.885 346.79 89.609 366.805 75.482 361.399 76.803 341.032"/><polygon class="b" points="82.468 402.483 96.534 407.184 95.903 417.287 81.814 412.765 82.468 402.483"/><polygon class="b" points="113.494 372.066 127.033 377.316 126.414 387.422 112.853 382.351 113.494 372.066"/><polygon class="b" points="123.857 361.91 137.22 367.344 136.608 377.44 123.224 372.185 123.857 361.91"/><polygon class="b" points="132.992 372.307 146.22 377.567 145.616 387.69 132.367 382.61 132.992 372.307"/><polygon class="b" points="153.203 362.22 166.096 367.67 165.515 377.808 152.601 372.537 153.203 362.22"/><polygon class="b" points="185.726 310.943 198.04 317.312 197.484 327.421 185.15 321.231 185.726 310.943"/><polygon class="b" points="108.366 454.768 122.082 458.57 121.465 468.802 107.727 465.184 108.366 454.768"/><polygon class="b" points="142.16 382.746 155.253 387.831 153.462 418.351 140.305 413.811 142.16 382.746"/><polygon class="b" points="42.598 567.841 57.496 569.619 56.82 579.94 41.899 578.349 42.598 567.841"/><polygon class="b" points="173.504 352.094 186.059 357.737 185.484 367.887 172.909 362.425 173.504 352.094"/><polygon class="b" points="118.793 444.591 132.329 448.578 131.72 458.807 118.162 455.003 118.793 444.591"/><polygon class="b" points="52.988 557.728 67.709 559.688 67.041 570.009 52.296 568.236 52.988 557.728"/><polygon class="b" points="130.493 413.641 143.807 418.178 141.988 448.801 128.608 444.813 130.493 413.641"/><polygon class="b" points="63.39 547.611 77.933 549.754 77.281 560.065 62.715 558.108 63.39 547.611"/><polygon class="b" points="107.079 475.608 120.839 479.042 120.212 489.307 106.43 486.058 107.079 475.608"/><polygon class="b" points="73.805 537.475 88.17 539.801 87.526 550.108 73.138 547.969 73.805 537.475"/><polygon class="b" points="117.522 465.426 131.102 469.045 130.483 479.308 116.88 475.874 117.522 465.426"/><polygon class="b" points="171.123 393.531 183.76 398.447 183.189 408.661 170.532 403.928 171.123 393.531"/><polygon class="b" points="203.819 341.994 215.871 347.838 215.317 358.023 203.245 352.361 203.819 341.994"/><polygon class="b" points="181.625 383.278 194.081 388.381 193.518 398.593 181.042 393.673 181.625 383.278"/><polygon class="b" points="213.221 352.445 225.13 358.113 224.58 368.328 212.651 362.843 213.221 352.445"/><polygon class="b" points="201.526 383.544 213.658 388.656 213.109 398.905 200.957 393.977 201.526 383.544"/><polygon class="b" points="212.083 373.249 224.032 378.551 223.491 388.798 211.523 383.68 212.083 373.249"/><polygon class="b" points="222.662 362.942 234.427 368.432 233.885 378.678 222.101 373.371 222.662 362.942"/><polygon class="b" points="409.339 62.433 417.741 73.357 417.341 83.367 408.925 72.619 409.339 62.433"/><polygon class="b" points="452.996 0 460.615 12.062 460.251 22.034 452.619 10.147 452.996 0"/><polygon class="b" points="397.804 93.327 406.422 103.703 406.015 113.758 397.382 103.559 397.804 93.327"/><polygon class="b" points="299.019 248.981 309.416 256.537 308.456 276.88 298.024 269.687 299.019 248.981"/><polygon class="b" points="463.001 9.754 470.455 21.666 470.107 31.667 462.64 19.931 463.001 9.754"/><polygon class="b" points="407.696 103.299 416.153 113.516 415.753 123.592 407.281 113.552 407.696 103.299"/><polygon class="b" points="396.547 124.062 405.208 133.906 404.797 143.997 396.121 134.333 396.547 124.062"/><polygon class="b" points="418.435 92.778 426.703 103.192 426.311 113.266 418.029 103.029 418.435 92.778"/><polygon class="b" points="252.309 373.734 263.594 379.056 263.081 389.361 251.777 384.225 252.309 373.734"/><polygon class="b" points="340.744 228.002 350.425 235.969 349.973 246.161 340.275 238.377 340.744 228.002"/><polygon class="b" points="274.154 342.531 285.048 348.421 284.552 358.706 273.641 353.001 274.154 342.531"/><polygon class="b" points="262.964 363.368 274.062 368.882 273.558 379.185 262.441 373.857 262.964 363.368"/><polygon class="b" points="473.058 19.552 480.346 31.311 479.994 41.342 472.694 29.759 473.058 19.552"/><polygon class="b" points="417.629 113.306 425.925 123.364 425.532 133.47 417.222 123.59 417.629 113.306"/><polygon class="b" points="283.807 353.086 294.549 358.798 294.051 369.114 283.291 363.589 283.807 353.086"/><polygon class="b" points="483.159 29.393 490.279 40.999 489.936 51.068 482.804 39.64 483.159 29.393"/><polygon class="b" points="427.601 123.358 435.733 133.255 434.582 163.719 426.408 154.364 427.601 123.358"/><polygon class="b" points="503.831 38.924 510.599 50.398 510.271 60.502 503.491 49.208 503.831 38.924"/><polygon class="b" points="325.264 342.914 335.3 348.839 334.832 359.195 324.779 353.458 325.264 342.914"/><polygon class="b" points="436.846 154.174 444.841 163.546 444.079 183.968 436.058 174.961 436.846 154.174"/><polygon class="b" points="491.92 80.472 498.918 91.206 498.58 101.37 491.57 90.817 491.92 80.472"/><polygon class="b" points="481.036 91.097 488.229 101.631 487.536 121.968 480.318 111.798 481.036 91.097"/><polygon class="b" points="345.912 343.075 355.598 349.014 355.145 359.392 345.443 353.642 345.912 343.075"/><polygon class="b" points="524.653 48.528 531.064 59.867 530.76 70.015 524.338 58.857 524.653 48.528"/><polygon class="b" points="424 216.837 432.257 225.092 431.865 235.374 423.594 227.304 424 216.837"/><polygon class="b" points="356.737 332.582 366.23 338.717 365.786 349.102 356.276 343.156 356.737 332.582"/><polygon class="b" points="535.6 37.849 541.814 49.391 541.51 59.538 535.285 48.176 535.6 37.849"/><polygon class="b" points="434.877 206.262 442.939 214.716 442.564 225.004 434.488 216.736 434.877 206.262"/><polygon class="b" points="446.544 174.801 454.385 183.823 453.268 214.614 445.387 206.146 446.544 174.801"/><polygon class="b" points="413.137 227.398 421.588 235.455 419.596 287.055 411.074 279.932 413.137 227.398"/><polygon class="b" points="545.939 47.833 551.976 59.217 551.689 69.402 545.64 58.2 545.939 47.833"/><polygon class="b" points="534.969 58.529 541.205 69.709 540.603 90.093 534.346 79.276 534.969 58.529"/><polygon class="b" points="377.549 332.707 386.686 338.857 386.256 349.272 377.103 343.312 377.549 332.707"/><polygon class="b" points="388.431 322.18 397.374 328.527 396.953 338.931 387.995 332.773 388.431 322.18"/><polygon class="b" points="400.6 279.942 409.303 287.054 407.662 328.578 398.9 322.222 400.6 279.942"/><polygon class="b" points="556.921 37.125 562.761 48.713 562.482 58.894 556.632 47.488 556.921 37.125"/><polygon class="b" points="567.927 26.411 573.568 38.203 573.288 48.376 567.637 36.765 567.927 26.411"/><polygon class="c" points="10.055 619.141 25.532 620 16.06 619.542 0.432 618.675 10.055 619.141"/><polygon class="c" points="20.423 609.063 35.723 610.103 26.231 609.659 10.779 608.612 20.423 609.063"/><polygon class="c" points="75.482 361.399 89.609 366.805 70.746 366.594 56.32 361.199 75.482 361.399"/><polygon class="c" points="81.814 412.765 95.903 417.287 86.395 417.117 72.154 412.599 81.814 412.765"/><polygon class="c" points="101.846 402.8 115.606 407.507 96.534 407.184 82.468 402.483 101.846 402.8"/><polygon class="c" points="123.224 372.185 136.608 377.44 127.033 377.316 113.494 372.066 123.224 372.185"/><polygon class="c" points="90.186 433.591 104.167 437.754 94.62 437.548 80.486 433.386 90.186 433.591"/><polygon class="c" points="133.61 362.009 146.817 367.449 137.22 367.344 123.857 361.91 133.61 362.009"/><polygon class="c" points="98.607 454.532 112.478 458.333 93.342 457.872 79.163 454.073 98.607 454.532"/><polygon class="c" points="152.601 372.537 165.515 377.808 146.22 377.567 132.992 372.307 152.601 372.537"/><polygon class="c" points="163.047 362.316 175.781 367.773 166.096 367.67 153.203 362.22 163.047 362.316"/><polygon class="c" points="107.727 465.184 121.465 468.802 111.846 468.552 97.953 464.934 107.727 465.184"/><polygon class="c" points="140.305 413.811 153.462 418.351 143.807 418.178 130.493 413.641 140.305 413.811"/><polygon class="c" points="41.899 578.349 56.82 579.94 47.296 579.537 32.221 577.94 41.899 578.349"/><polygon class="c" points="118.162 455.003 131.72 458.807 122.082 458.57 108.366 454.768 118.162 455.003"/><polygon class="c" points="52.296 568.236 67.041 570.009 57.496 569.619 42.598 567.841 52.296 568.236"/><polygon class="c" points="183.387 352.177 195.782 357.826 186.059 357.737 173.504 352.094 183.387 352.177"/><polygon class="c" points="128.608 444.813 141.988 448.801 132.329 448.578 118.793 444.591 128.608 444.813"/><polygon class="c" points="62.715 558.108 77.281 560.065 67.709 559.688 52.988 557.728 62.715 558.108"/><polygon class="c" points="106.43 486.058 120.212 489.307 100.983 488.75 86.889 485.499 106.43 486.058"/><polygon class="c" points="73.138 547.969 87.526 550.108 77.933 549.754 63.39 547.611 73.138 547.969"/><polygon class="c" points="116.88 475.874 130.483 479.308 120.839 479.042 107.079 475.608 116.88 475.874"/><polygon class="c" points="170.532 403.928 183.189 408.661 163.749 408.333 150.772 403.608 170.532 403.928"/><polygon class="c" points="181.042 393.673 193.518 398.593 183.76 398.447 171.123 393.531 181.042 393.673"/><polygon class="c" points="191.566 383.407 203.86 388.515 194.081 388.381 181.625 383.278 191.566 383.407"/><polygon class="c" points="223.775 342.152 235.501 348.009 215.871 347.838 203.819 341.994 223.775 342.152"/><polygon class="c" points="200.957 393.977 213.109 398.905 203.296 398.748 190.982 393.824 200.957 393.977"/><polygon class="c" points="211.523 383.68 223.491 388.798 213.658 388.656 201.526 383.544 211.523 383.68"/><polygon class="c" points="233.245 352.633 244.826 358.313 234.961 358.214 223.216 352.54 233.245 352.633"/><polygon class="c" points="222.101 373.371 233.885 378.678 224.032 378.551 212.083 373.249 222.101 373.371"/><polygon class="c" points="287.889 269.711 298.489 276.894 288.541 276.917 277.773 269.744 287.889 269.711"/><polygon class="c" points="441.882 20.695 449.704 32.385 439.541 32.736 431.543 21.07 441.882 20.695"/><polygon class="c" points="386.678 114.05 395.499 124.052 385.418 124.278 376.424 114.294 386.678 114.05"/><polygon class="c" points="408.1 93.053 416.544 103.448 406.422 103.703 397.804 93.327 408.1 93.053"/><polygon class="c" points="396.121 134.333 404.797 143.997 384.571 144.403 375.548 134.773 396.121 134.333"/><polygon class="c" points="418.029 103.029 426.311 113.266 416.153 113.516 407.696 103.299 418.029 103.029"/><polygon class="c" points="406.864 123.823 415.35 133.684 405.208 133.906 396.547 124.062 406.864 123.823"/><polygon class="c" points="251.777 384.225 263.081 389.361 243.231 389.073 231.593 383.946 251.777 384.225"/><polygon class="c" points="384.535 165.439 393.43 174.548 383.303 174.705 374.234 165.612 384.535 165.439"/><polygon class="c" points="262.441 373.857 273.558 379.185 263.594 379.056 252.309 373.734 262.441 373.857"/><polygon class="c" points="339.805 248.759 349.52 256.361 339.456 256.404 329.569 248.813 339.805 248.759"/><polygon class="c" points="439.184 92.219 447.098 102.673 426.703 103.192 418.435 92.778 439.184 92.219"/><polygon class="c" points="383.667 186.111 392.592 194.859 382.459 194.987 373.36 186.254 383.667 186.111"/><polygon class="c" points="294.51 342.681 305.063 348.585 285.048 348.421 274.154 342.531 294.51 342.681"/><polygon class="c" points="283.291 363.589 294.051 369.114 274.062 368.882 262.964 363.368 283.291 363.589"/><polygon class="c" points="459.675 101.972 467.243 112.286 446.719 112.783 438.791 102.508 459.675 101.972"/><polygon class="c" points="324.779 353.458 334.832 359.195 304.582 358.899 294.011 353.181 324.779 353.458"/><polygon class="c" points="335.569 342.995 345.43 348.927 335.3 348.839 325.264 342.914 335.569 342.995"/><polygon class="c" points="491.57 90.817 498.58 101.37 488.229 101.631 481.036 91.097 491.57 90.817"/><polygon class="c" points="480.318 111.798 487.536 121.968 466.881 122.431 459.3 112.298 480.318 111.798"/><polygon class="c" points="345.443 353.642 355.145 359.392 344.97 359.299 335.092 353.556 345.443 353.642"/><polygon class="c" points="423.594 227.304 431.865 235.374 421.588 235.455 413.137 227.398 423.594 227.304"/><polygon class="c" points="356.276 343.156 365.786 349.102 355.598 349.014 345.912 343.075 356.276 343.156"/><polygon class="c" points="535.285 48.176 541.51 59.538 531.064 59.867 524.653 48.528 535.285 48.176"/><polygon class="c" points="434.488 216.736 442.564 225.004 432.257 225.092 424 216.837 434.488 216.736"/><polygon class="c" points="367.123 332.648 376.439 338.79 366.23 338.717 356.737 332.582 367.123 332.648"/><polygon class="c" points="445.387 206.146 453.268 214.614 442.939 214.716 434.877 206.262 445.387 206.146"/><polygon class="c" points="411.074 279.932 419.596 287.055 409.303 287.054 400.6 279.942 411.074 279.932"/><polygon class="c" points="545.64 58.2 551.689 69.402 541.205 69.709 534.969 58.529 545.64 58.2"/><polygon class="c" points="534.346 79.276 540.603 90.093 498.918 91.206 491.92 80.472 534.346 79.276"/><polygon class="c" points="377.103 343.312 386.256 349.272 376.011 349.181 366.679 343.228 377.103 343.312"/><polygon class="c" points="387.995 332.773 396.953 338.931 386.686 338.857 377.549 332.707 387.995 332.773"/><polygon class="c" points="398.9 322.222 407.662 328.578 397.374 328.527 388.431 322.18 398.9 322.222"/><polygon class="c" points="556.632 47.488 562.482 58.894 551.976 59.217 545.939 47.833 556.632 47.488"/><polygon class="c" points="567.637 36.765 573.288 48.376 562.761 48.713 556.921 37.125 567.637 36.765"/><polygon class="d" points="11.496 598.106 12.218 587.608 21.856 588.029 20.423 609.063 10.779 608.612 10.055 619.141 0.432 618.675 1.886 597.668 11.496 598.106"/><polygon class="d" points="76.803 341.032 75.482 361.399 56.32 361.199 56.989 351.032 66.555 351.123 67.224 340.966 76.803 341.032"/><polygon class="d" points="32.221 577.94 32.919 567.454 42.598 567.841 41.899 578.349 32.221 577.94"/><polygon class="d" points="42.598 567.841 43.297 557.357 52.988 557.728 52.296 568.236 42.598 567.841"/><polygon class="d" points="86.889 485.499 87.551 475.088 107.079 475.608 106.43 486.058 86.889 485.499"/><polygon class="d" points="52.988 557.728 54.36 536.779 73.805 537.475 73.138 547.969 63.39 547.611 62.715 558.108 52.988 557.728"/><polygon class="d" points="116.88 475.874 107.079 475.608 107.727 465.184 117.522 465.426 116.88 475.874"/><polygon class="d" points="535.6 37.849 535.285 48.176 524.653 48.528 524.976 38.206 535.6 37.849"/><polygon class="d" points="534.969 58.529 535.285 48.176 545.939 47.833 545.64 58.2 534.969 58.529"/><polygon class="d" points="545.939 47.833 546.245 37.491 556.921 37.125 556.632 47.488 545.939 47.833"/><polygon class="d" points="557.22 26.786 567.927 26.411 567.637 36.765 556.921 37.125 557.22 26.786"/><path class="d" d="M524.653,48.528l-.315,10.329,10.631-.328-.624,20.747-42.426,1.2-.35,10.345-10.534.28-.717,20.7-21.019.5.375-10.326-20.883.536.392-10.289-20.749.559-.406,10.252L407.7,103.3l.4-10.245-10.3.274-.421,10.232,10.313-.26-.414,10.254,10.348-.247-.407,10.285,10.379-.232-1.193,31.006,10.439-.19-.789,20.787,10.487-.161-1.157,31.345-10.511.116-.388,10.474-10.488.1-.406,10.468-10.457.094-2.063,52.534-10.474.01-1.7,42.279-10.469-.042-.436,10.594-10.446-.066-.445,10.6-10.424-.084.444-10.58-10.386-.066-.461,10.574-10.364-.081-.469,10.567-10.351-.087.477-10.561-10.3-.081-.485,10.544-30.768-.277.5-10.5-20.356-.15L273.641,353l10.167.086-.516,10.5-20.327-.221-.523,10.489-10.132-.124-.531,10.491-20.184-.279,1.652-31.313-10.03-.093.559-10.387-19.956-.158-.574,10.367,9.975.084-.569,10.4,10.011.1-.561,10.43-10.018-.122-.561,10.431-10-.137-.569,10.433-9.976-.153.584-10.416-9.941-.129-.583,10.395-9.92-.141-.591,10.4-19.76-.32,1.829-31.07,9.842.12.6-10.341-9.843-.1-.6,10.318-19.609-.231.618-10.3-9.753-.1-.633,10.275-9.73-.119-.641,10.285,9.747.133.624-10.3,9.768.121-.625,10.3,9.794.136-1.855,31.065-9.813-.169-1.884,31.171-9.816-.222L118.162,455l-9.8-.236-.639,10.416-9.775-.25.654-10.4-19.444-.46.666-10.347,9.7.21.659-10.345-9.7-.2.664-10.314,9.685.181.656-10.313,9.713.178.641-10.319-19.378-.316-.654,10.282-9.66-.166,2-30.771,9.639.134.651-10.242,19.338.236,1.288-20.484,19.419.174.621-10.242,19.514.144.614-10.255,9.787.056.607-10.253,19.65.087.592-10.265,9.855.025-.577,10.288,9.887.051.58-10.3,59.9.19.534-10.365,10.081.011.517-10.363,10.1.005.509-10.37,10.123-.007.509-10.368-10.116.033.518-10.337,10.1-.038.51-10.326,10.121-.062-.995,20.706,30.589-.082.478-10.4,10.253-.048.461-10.4-10.236.054.944-20.728,10.23-.084-.469,10.375,20.554-.145.9-20.782,10.31-.1.879-20.745,10.324-.138.428-10.357-10.307.143.442-10.326,10.3-.164.434-10.324-10.3.173.441-10.293,10.284-.2.432-10.291,10.315-.2.415-10.3,10.336-.215.407-10.3-10.318.24-.425,10.27-20.574.441.439-10.252,10.261-.23.43-10.242-10.254.244.865-20.411,10.247-.273.849-20.377,10.252-.31.419-10.174,10.282-.315-.414,10.186,10.31-.3.809-20.4,10.322-.333.791-20.36L441.5,30.86l.386-10.165-10.339.374L432.329.81,453,0l-.377,10.147L463,9.754l-.361,10.176,10.419-.379-.365,10.208,10.465-.367L482.8,39.64l21.027-.716-.34,10.284Zm-341.846,314,.58-10.354-9.883-.083-.6,10.331,9.9.106"/><path class="a" d="M235.376,173.873a45.526,45.526,0,0,0-8.513,90.25l8.513,79.2,8.512-79.2a45.526,45.526,0,0,0-8.512-90.25Z"/><rect class="e" x="222.05" y="212.061" width="24.502" height="4.084"/><path class="f" d="M222.05,232.479h4.084v-8.167H222.05Zm20.418-8.167v8.167h4.084v-8.167Z"/><path class="g" d="M217.967,232.479h4.084v-8.167h4.084v-4.084h-8.167Zm24.5-12.251v4.084h4.084v8.167h4.084V220.228Z"/><path class="h" d="M250.635,220.228v12.251h4.084V220.228Zm-36.752,0v12.251h4.084V220.228Zm28.585,0h8.167v-4.084H217.967v4.084h8.167v12.251h-8.167v4.084h32.669v-4.084h-8.167Z"/><path class="f" d="M258.8,203.894h4.084V199.81h-44.92v4.084h-4.084v4.084H209.8v4.084h-4.084v20.418H209.8v4.084h4.084v4.084h40.836v-4.084H258.8v-4.084h4.084V212.061H258.8Zm-8.167,28.585v4.084H217.967v-4.084h-4.084V220.228h4.084v-4.084h4.084v-4.084h24.5v4.084h4.084v4.084h4.084v12.251Z"/></svg>