<svg xmlns="http://www.w3.org/2000/svg" xmlns:xlink="http://www.w3.org/1999/xlink" width="640" height="480" viewBox="0 0 640 480"><defs><style>.a{fill:url(#a);}.b{fill:#fff;}.c{fill:#b8bcbe;}.d{fill:#9e9e9f;}.e{fill:#2ca6ff;}</style><linearGradient id="a" x1="165.86" y1="225.998" x2="208.028" y2="183.83" gradientUnits="userSpaceOnUse"><stop offset="0" stop-color="#0094ff"/><stop offset="1" stop-color="#84cfff"/></linearGradient></defs><title>Artboard 5</title><path class="a" d="M186.944,247.083s-15.078-16.582-19.1-20.99c-7.453-8.153-9.98-14.532-9.98-22.118a29.082,29.082,0,1,1,58.163,0c0,7.585-2.536,13.964-9.979,22.118C202.021,230.5,186.944,247.083,186.944,247.083Z"/><path class="b" d="M201.764,202.286a14.951,14.951,0,1,1-14.951-14.96A14.943,14.943,0,0,1,201.764,202.286Z"/><path class="c" d="M364.413,309a4.973,4.973,0,0,1-4.589-6.865l26.253-63.561h-128.5a4.963,4.963,0,1,1,0-9.925H393.5a4.963,4.963,0,0,1,4.587,6.857L369,305.93A4.967,4.967,0,0,1,364.413,309Z"/><path class="c" d="M412.61,309a4.966,4.966,0,0,1-4.531-7l5.348-11.942a4.963,4.963,0,0,1,4.529-2.937h31.988a4.964,4.964,0,0,1,0,9.928H421.172l-4.033,9.007A4.965,4.965,0,0,1,412.61,309Z"/><path class="c" d="M458.822,277.243h-31.99a4.965,4.965,0,0,1-4.62-6.778L437.4,231.8a4.972,4.972,0,0,1,4.624-3.147H475.41a4.963,4.963,0,1,1,0,9.925H445.405l-11.292,28.741h24.708a4.963,4.963,0,0,1,0,9.927Z"/><path class="d" d="M418.769,217.79c-4.444-6.6-12.151-10.231-21.713-10.231H252.073l2.156-5.907c.984-2.428-.879-3.225-3.454-1.883l-19.683,9.367c-2.566,1.341-2.785,3.242-1.3,4.58l12.235,11.047c1.483,1.341,3.505.447,4.482-1.98l1.934-5.3H397.056c6.155,0,10.939,2.076,13.474,5.845s2.654,8.983.334,14.682l-26.083,64.15a4.965,4.965,0,1,0,9.2,3.741l26.083-64.15C423.666,232.9,423.2,224.385,418.769,217.79Z"/><path class="e" d="M244.283,174.763v16.119h-1.74v-1.309h-15v-1.6h15V176.358H227.779v-1.595Z"/><path class="e" d="M271.272,174.072a.755.755,0,0,1-.307.238c-.928,9.309-4.1,14.31-12.047,17.525a10.146,10.146,0,0,0-1.2-1.287c7.6-3.094,10.576-7.619,11.361-15.43H255.491v6.574h-1.645V173.5H269.63l.261-.19Z"/><path class="e" d="M278.554,180.548h19.877v1.691H279.452a1.085,1.085,0,0,1-.76.453Z"/><path class="e" d="M315.709,184.524l.855,7.478-1.711.189-.834-7.453-8.928,1.142-.216-1.569,8.978-1.144-.618-5.357-7.479.976-.214-1.593,7.5-.955-.523-4.712,2.333-.1c0,.239-.214.432-.547.526l.428,4.046,7.239-.951.187,1.619-7.234.927.618,5.336,8.951-1.119.214,1.572Z"/><path class="e" d="M332.82,173.356a29.543,29.543,0,0,1,7.092,3.241l-.9,1.5a30.559,30.559,0,0,0-6.957-3.309Zm-.1,16.5c8.453-2.619,14.074-7.356,16.929-13.953a8.987,8.987,0,0,0,1.551.977c-2.977,6.524-8.787,11.6-16.862,14.288a.762.762,0,0,1-.331.545Z"/><path class="e" d="M375.432,176.166a1.273,1.273,0,0,1-.356.358c-2.527,7.882-6.432,12.643-12.885,15.93a5.6,5.6,0,0,0-1.21-1.311,22.063,22.063,0,0,0,11.976-14.023H364.55a23.825,23.825,0,0,1-5.26,5.809,7.764,7.764,0,0,0-1.335-1.071,23.765,23.765,0,0,0,7.548-10.431l2.24.621c-.077.238-.364.334-.669.308a35.071,35.071,0,0,1-1.571,3.168h8.281l.289-.143Zm-2.955-5.476a17.719,17.719,0,0,1,3.123,3.381l-.884.763a17.109,17.109,0,0,0-3.067-3.381Zm3.454-.69a17.11,17.11,0,0,1,3.123,3.381l-.884.737a16.838,16.838,0,0,0-3.073-3.356Z"/><path class="e" d="M399.874,173.88a.486.486,0,0,1-.309.264,36.64,36.64,0,0,1-4.762,8.19,87.63,87.63,0,0,1,8.718,8.072l-1.454,1.263a77.57,77.57,0,0,0-8.359-8,37.474,37.474,0,0,1-9.164,8,8.751,8.751,0,0,0-1.24-1.288,34.1,34.1,0,0,0,13.953-15.546H385.567v-1.619h12.615l.314-.121Z"/><path class="e" d="M408.508,183.191c1.813-1.9,5.574-6.1,6.93-7.548a2.646,2.646,0,0,1,1.858-.9,3.011,3.011,0,0,1,1.927.9,118.6,118.6,0,0,1,11.623,12.978l-1.433,1.309a104.825,104.825,0,0,0-11.019-12.809c-.407-.382-.716-.6-1.022-.6s-.6.238-.977.6c-1.119,1.213-4.6,5.213-6.192,6.928a.428.428,0,0,1,.023.168.683.683,0,0,1-.237.5Zm18.05-12.071a2.667,2.667,0,1,1-2.69,2.667A2.659,2.659,0,0,1,426.558,171.119Zm1.855,2.667a1.881,1.881,0,0,0-1.855-1.9,1.892,1.892,0,1,0,0,3.785A1.875,1.875,0,0,0,428.413,173.786Z"/><path class="e" d="M435.79,180.548h19.877v1.691H436.689a1.094,1.094,0,0,1-.76.453Z"/><path class="e" d="M478.5,173.88a.518.518,0,0,1-.314.264,37.007,37.007,0,0,1-4.757,8.19,88.279,88.279,0,0,1,8.71,8.072l-1.454,1.263a77.393,77.393,0,0,0-8.355-8,37.5,37.5,0,0,1-9.169,8,8.928,8.928,0,0,0-1.236-1.288,34.17,34.17,0,0,0,13.953-15.546H464.184v-1.619h12.624l.3-.121Z"/><path class="e" d="M186.944,257.474c-14.124,0-23.065,13.195-23.065,25.881,0,15.14,9.7,26.644,23.065,26.644s23.065-11.5,23.065-26.644C210.009,270.669,201.069,257.474,186.944,257.474Zm0,47.619c-10.1,0-17.427-9.355-17.427-21.667,0-10.316,6.753-21.048,17.427-21.048s17.425,10.732,17.425,21.048C204.37,295.739,197.04,305.093,186.944,305.093Z"/><path class="e" d="M252.631,277.5c0-.426,0-.843,0-1.247,0-5.591,1.149-9.691,3.221-12.264,3.542-4.394,9.44-4.53,14.433-1.434l2.569-3.725c-7.865-5.836-16.746-2.369-20.383,1.27-4.145,4.144-4.823,10.827-4.99,16.154-.011.331-.021.753-.03,1.247h-18.5v-1.247c0-5.591,1.147-9.691,3.222-12.264,3.54-4.394,9.438-4.53,14.429-1.434l2.572-3.725c-7.865-5.836-16.746-2.369-20.383,1.27-4.145,4.144-4.823,10.827-4.99,16.154-.011.331-.021.753-.03,1.247h-9.044v4.636l8.987.045c-.084,10.072-.088,27.815-.088,27.815h5.556s-.163-15.885-.214-27.788l18.429.094C247.305,292.4,247.3,310,247.3,310h5.556s-.163-15.776-.213-27.667l19.191.1L271.661,310h5.559l-.263-32.5Z"/><path class="e" d="M311.081,274.549l2.368-5.074c-15.9-6.6-27.91,4.818-27.91,19.874,0,15.142,12.35,24.951,27.659,18.779l-2.708-4.821c-11.673,4.651-20.131-2.876-20.131-13.871S298.648,268.966,311.081,274.549Z"/><path class="e" d="M337.214,267.563c-11.38,0-19.2,9.634-19.2,21.785,0,15.142,12.348,24.951,27.658,18.779l-2.708-4.821c-11.617,4.628-20.035-2.8-20.123-13.709,4.127-.034,28.724-.248,29.343-.248a1.138,1.138,0,0,0,1.1-1.183C353.289,278.1,349.059,267.563,337.214,267.563Zm-13.658,16.318c1.708-6.446,6.47-11.314,13.83-11.314,7.111,0,10.6,6.389,10.6,11.486Z"/></svg>