<svg xmlns="http://www.w3.org/2000/svg" width="640" height="480" viewBox="0 0 640 480"><defs><style>.a{fill:#424242;}.b{fill:#00629d;}</style></defs><title>logo-monaca</title><path class="a" d="M280.386,267.353h-5.03V227.9l-14.934,25.781c-1.258,1.886-1.729,2.83-2.515,3.3a7.27,7.27,0,0,1-8.174,0c-.629-.472-1.1-1.1-2.515-3.3L231.5,227.739v39.614h-5.03a5.117,5.117,0,0,1-3.616-1.572,5.633,5.633,0,0,1-1.415-3.773V219.564a7.53,7.53,0,0,1,1.886-5.188,6.446,6.446,0,0,1,4.873-2.2h2.83a6.353,6.353,0,0,1,3.93,1.415,11.145,11.145,0,0,1,2.358,3.3l16.506,27.981L269.7,216.892a26.7,26.7,0,0,1,2.358-3.3,6.037,6.037,0,0,1,3.93-1.415h2.83a6.7,6.7,0,0,1,4.873,2.2,7.53,7.53,0,0,1,1.886,5.188v42.444a5.107,5.107,0,0,1-5.188,5.345Z"/><path class="a" d="M320,267.824c-6.917,0-12.576-2.515-16.663-7.231s-6.131-11.161-6.131-18.864,2.044-13.991,6.131-18.864,9.746-7.231,16.663-7.231a21.405,21.405,0,0,1,16.663,7.231q6.131,7.31,6.131,18.864t-6.131,18.864C332.419,265.466,326.917,267.824,320,267.824Zm0-41.815c-5.5,0-9.275,2.672-11.475,8.332a23.265,23.265,0,0,0,0,15.091,13.509,13.509,0,0,0,2.987,4.873,11.512,11.512,0,0,0,4.087,2.672,11.357,11.357,0,0,0,4.4.786,14.438,14.438,0,0,0,4.4-.786,13.083,13.083,0,0,0,4.087-2.672c2.83-2.83,4.244-6.917,4.244-12.419,0-5.188-1.415-9.432-4.244-12.261A11.076,11.076,0,0,0,320,226.009Z"/><path class="a" d="M389.639,267.353h-5.03V236.227a13.614,13.614,0,0,0-1.886-7.7c-1.258-1.729-3.144-2.515-6.131-2.515-4.4,0-8.646,2.672-12.576,8.174v33.169h-5.03a5.117,5.117,0,0,1-3.616-1.572,5.633,5.633,0,0,1-1.415-3.773V221.765a5.747,5.747,0,0,1,1.415-3.93,4.944,4.944,0,0,1,7.231,0,5.747,5.747,0,0,1,1.415,3.93v.629a17.484,17.484,0,0,1,3.93-3.3,18.552,18.552,0,0,1,9.9-3.3,16.009,16.009,0,0,1,7.7,1.572,15.523,15.523,0,0,1,5.188,4.4q4.244,5.423,4.244,13.676v26.567a5.1,5.1,0,0,1-1.415,3.773A5.721,5.721,0,0,1,389.639,267.353Z"/><path class="a" d="M419.507,267.824a14.722,14.722,0,0,1-10.532-4.087c-2.987-2.83-4.4-6.6-4.4-11.161q0-7.546,5.188-11.79c3.616-2.987,8.8-4.559,15.405-4.559h8.96c0-3.616-.943-6.131-2.358-7.546-1.572-1.572-4.244-2.358-7.7-2.358a34.055,34.055,0,0,0-10.847,2.2h-.157a7.047,7.047,0,0,1-1.886.157,3.513,3.513,0,0,1-2.672-1.415,5.883,5.883,0,0,1-1.258-3.93,4.512,4.512,0,0,1,2.83-4.244,34.35,34.35,0,0,1,15.248-3.458c6.131,0,10.847,2.044,14.305,6.288a20.537,20.537,0,0,1,4.559,13.362v26.567a5.1,5.1,0,0,1-1.415,3.773,4.552,4.552,0,0,1-3.616,1.572h-5.03v-5.03a29.052,29.052,0,0,1-4.244,2.987C427.052,267.038,423.594,267.824,419.507,267.824Zm6.6-22.322c-3.773,0-6.76.472-8.8,1.572a4.536,4.536,0,0,0-2.672,4.559c0,2.672.786,6.288,7.7,6.288a11.771,11.771,0,0,0,6.76-2.044,19.427,19.427,0,0,0,5.03-4.244V245.5Z"/><path class="a" d="M477.2,267.824a22.662,22.662,0,0,1-16.663-6.917c-4.716-4.873-7.074-11.318-7.074-19.178s2.358-14.305,7.074-19.178a22.662,22.662,0,0,1,16.663-6.917,21,21,0,0,1,8.8,1.572,26.97,26.97,0,0,1,5.345,2.987,5.119,5.119,0,0,1,2.515,4.087A5.605,5.605,0,0,1,492.6,227.9a3.75,3.75,0,0,1-2.83,1.729,6.46,6.46,0,0,1-3.616-1.1,16.565,16.565,0,0,0-8.332-2.515c-4.559,0-8.017,1.415-10.532,4.244s-3.773,6.76-3.773,11.475,1.258,8.646,3.773,11.475,5.974,4.244,10.532,4.244a15.15,15.15,0,0,0,8.332-2.515,6.283,6.283,0,0,1,3.3-1.1,4.006,4.006,0,0,1,3.144,1.729,5.934,5.934,0,0,1,1.258,3.616,4.762,4.762,0,0,1-2.515,4.087A22.432,22.432,0,0,1,477.2,267.824Z"/><path class="a" d="M518.07,267.824a14.723,14.723,0,0,1-10.532-4.087c-2.987-2.83-4.4-6.6-4.4-11.161q0-7.546,5.188-11.79c3.616-2.987,8.8-4.559,15.405-4.559h8.96c0-3.616-.943-6.131-2.358-7.546-1.572-1.572-4.244-2.358-7.7-2.358a34.056,34.056,0,0,0-10.847,2.2h-.157a7.653,7.653,0,0,1-1.886.157,3.513,3.513,0,0,1-2.672-1.415,5.883,5.883,0,0,1-1.258-3.93,4.512,4.512,0,0,1,2.83-4.244,34.35,34.35,0,0,1,15.248-3.458c6.131,0,10.847,2.044,14.305,6.288a20.537,20.537,0,0,1,4.559,13.362v26.567a5.1,5.1,0,0,1-1.415,3.773,4.552,4.552,0,0,1-3.616,1.572h-5.03v-5.03a29.051,29.051,0,0,1-4.244,2.987C525.773,267.038,522.157,267.824,518.07,267.824Zm6.76-22.322c-3.773,0-6.76.472-8.8,1.572a4.536,4.536,0,0,0-2.672,4.559c0,2.672.786,6.288,7.7,6.288a11.771,11.771,0,0,0,6.76-2.044,19.428,19.428,0,0,0,5.03-4.244V245.5Z"/><path class="b" d="M176.792,190.8H116.114A18.919,18.919,0,0,0,97.25,209.661v60.679A18.919,18.919,0,0,0,116.114,289.2h60.679a18.919,18.919,0,0,0,18.864-18.864V209.661A18.919,18.919,0,0,0,176.792,190.8Zm-11.161,68.381H127.275V220.822h38.2v38.356Z"/></svg>