<svg xmlns="http://www.w3.org/2000/svg" width="640" height="480" viewBox="0 0 640 480"><defs><style>.a{fill:#040000;}.b{fill:#050001;}.c{fill:#fff;}.d{fill:#e99324;}</style></defs><title>logo-meteorworks</title><path class="a" d="M161.547,243.8l-4.116,23.151h-7.46l9-46.044,14.148,32.154,14.662-32.154,8.231,46.044h-7.46l-3.6-23.151-11.833,25.723"/><path class="a" d="M203.475,266.954V225.025H227.14v6.945H210.935v8.489h15.691V247.4H210.935v12.347H227.14V266.7m16.72.257V231.97H234.6v-6.945h25.98v6.945h-9.26V266.7m16.977.257V225.025H291.7v6.945H275.5v8.489H291.19V247.4H275.5v12.347H291.7V266.7m28.552,1.029a20.418,20.418,0,0,1-14.4-5.659q-6.945-6.174-6.945-16.205a20.037,20.037,0,0,1,6.431-15.177,21.588,21.588,0,0,1,15.434-6.431,20.037,20.037,0,0,1,15.177,6.431,21.156,21.156,0,0,1,6.431,15.434,20.037,20.037,0,0,1-6.431,15.177,22.64,22.64,0,0,1-15.691,6.431Zm.257-36.527a14.552,14.552,0,0,0-10.032,24.951,13.591,13.591,0,0,0,10.032,4.116A13.766,13.766,0,0,0,330.8,256.15a15.57,15.57,0,0,0,0-21.093,16.389,16.389,0,0,0-10.289-3.858Zm48.1,35.755-11.575-16.72h-.257v16.72h-7.2V225.025H357.3c5.4,0,9.517,1.029,12.09,3.087a12.641,12.641,0,0,1,1.543,16.977,11.376,11.376,0,0,1-5.916,3.858l12.6,17.492h-9ZM358.07,243.8c5.4,0,8.231-2.058,8.231-6.174,0-3.858-2.572-5.659-7.974-5.659h-1.543V243.8Zm19.292-19.549h7.46l8.489,25.208,9.26-22.122,9,22.122,9.26-25.208h7.46l-16.463,45.53-9-24.951-9.517,24.951m56.333-2.058a20.418,20.418,0,0,1-14.4-5.659q-6.945-6.174-6.945-16.205a20.037,20.037,0,0,1,6.431-15.177,21.588,21.588,0,0,1,15.434-6.431,20.037,20.037,0,0,1,15.177,6.431,21.156,21.156,0,0,1,6.431,15.434,20.037,20.037,0,0,1-6.431,15.177A22.185,22.185,0,0,1,449.644,267.725ZM449.9,231.2a14.552,14.552,0,0,0-10.032,24.951,13.591,13.591,0,0,0,10.032,4.116,13.766,13.766,0,0,0,10.289-4.116,15.57,15.57,0,0,0,0-21.093A15.848,15.848,0,0,0,449.9,231.2Zm48.616,35.755-11.575-16.72h-.257v16.72h-7.2V225.025H487.2c5.4,0,9.517,1.029,12.09,3.087a12.641,12.641,0,0,1,1.543,16.977,11.376,11.376,0,0,1-5.916,3.858l12.6,17.492h-9ZM487.971,243.8c5.4,0,8.231-2.058,8.231-6.174,0-3.858-2.572-5.659-7.974-5.659h-1.543V243.8Zm47.073,23.151-14.4-17.749-.514.772v17.234h-7.2V225.025h7.2v15.434l14.919-15.434h9.775L525.784,244.06,544.561,266.7m16.205,1.029a12.224,12.224,0,0,1-9-3.344c-2.315-2.058-3.858-5.145-4.373-9.26v-.514l7.46-1.543v.514a11.213,11.213,0,0,0,1.286,4.63,6.133,6.133,0,0,0,5.145,2.315,5.3,5.3,0,0,0,4.373-1.8,6.714,6.714,0,0,0,1.543-6.431,5.382,5.382,0,0,0-1.029-1.543,11.187,11.187,0,0,0-1.8-1.543,8.047,8.047,0,0,0-2.572-1.286l-3.858-1.543c-5.659-2.315-8.746-6.174-8.746-10.8a10.161,10.161,0,0,1,3.6-7.974,13.363,13.363,0,0,1,9-3.344q7.331,0,11.575,6.945l.257.514-5.916,3.6-.257-.514a6.96,6.96,0,0,0-2.315-2.83,5.486,5.486,0,0,0-3.087-.772,6.318,6.318,0,0,0-3.858,1.286,3.667,3.667,0,0,0-1.543,3.087c0,1.8,1.286,3.087,4.116,4.116l4.116,1.543a16.7,16.7,0,0,1,7.46,5.145,12.254,12.254,0,0,1,2.315,7.46,13.382,13.382,0,0,1-3.858,9.775,14.667,14.667,0,0,1-10.032,4.116Z"/><path class="b" d="M133.509,223.739c9.26-13.119,8.489-23.665,26.752-27.781a62.685,62.685,0,0,0-6.945.257c-5.145.514-9,1.8-12.09,3.858,1.543-2.83,2.83-5.4,4.373-7.717a20.917,20.917,0,0,1,14.148-9.775c-1.286-.257-7.46,0-11.061,2.058-8.746,5.4-10.032,13.89-14.662,18.778a38.455,38.455,0,0,0,1.8-6.431,63.714,63.714,0,0,0,.772-6.945c-4.63,14.4-11.833,18.263-21.865,22.379,1.8-3.344,2.572-9,2.315-12.861-3.344,11.318-11.833,14.662-21.093,20.836,3.344-3.344,5.145-7.46,3.344-12.6-4.116,13.376-12.6,13.633-23.151,21.865a27.031,27.031,0,0,0-10.8,21.607,26.237,26.237,0,0,0,49.388,12.347c4.887-7.2,20.321-8.746,20.321-20.578a19.469,19.469,0,0,0-.257-3.858c-1.8,8.746-8.231,10.289-16.205,14.4a13.048,13.048,0,0,0,1.8-1.543c14.148-14.4,10.8-27.266,25.98-30.353a27.958,27.958,0,0,0-4.63-.257A12.469,12.469,0,0,0,133.509,223.739ZM117.818,196.73c-1.286-2.315-.772-6.174.772-7.717a10.522,10.522,0,0,1,4.373-2.83s-3.344,3.344-3.858,4.63A12.476,12.476,0,0,0,117.818,196.73Z"/><path class="c" d="M109.843,238.916c4.63-3.344,15.691-7.46,13.376-16.463-.514,7.717-12.6,10.289-22.893,14.4h0c7.2-4.116,15.177-9.26,17.749-18.006-8.231,12.347-20.836,10.032-34.726,16.72a16.694,16.694,0,0,0-7.2,6.688,17.043,17.043,0,0,0-2.83,9.26,17.347,17.347,0,0,0,17.492,17.492,17.155,17.155,0,0,0,16.977-13.89c2.058-7.46,3.344-16.463,11.061-16.72a12.649,12.649,0,0,0-12.09,3.344C107.786,240.973,108.815,239.687,109.843,238.916Zm13.119-21.093a8.559,8.559,0,0,1,2.315-6.431,14.086,14.086,0,0,1,4.63-2.572s-2.83,3.087-3.858,4.373A20.215,20.215,0,0,0,122.962,217.823Zm7.2,5.916a15.222,15.222,0,0,1-2.315,10.289,8.4,8.4,0,0,1-5.4,3.344,41.43,41.43,0,0,0,4.373-4.63A17.862,17.862,0,0,0,130.165,223.739Z"/><path class="d" d="M104.184,251.777a13.119,13.119,0,1,1-13.119-13.119A13.174,13.174,0,0,1,104.184,251.777Z"/></svg>