<svg xmlns="http://www.w3.org/2000/svg" width="640" height="480" viewBox="0 0 640 480"><defs><style>.a{fill:#f57;}.b,.c{fill:#808088;}.b{opacity:0.4;isolation:isolate;}</style></defs><title>logo-sakura</title><path class="a" d="M233.02,191.4c-15.405-12.382-38-9.682-50.444,5.667l-16.86,20.812a8.513,8.513,0,0,0,6.617,13.873h49.322a14.476,14.476,0,0,1,14.18,11.468l.3,1.4,2.3-2.836a35.761,35.761,0,0,0-5.3-50.295Z"/><path class="b" d="M135.856,287.429c15.405,12.388,38,9.692,50.444-5.667l16.854-20.812a8.513,8.513,0,0,0-6.617-13.873H147.226a14.476,14.476,0,0,1-14.159-11.468l-.3-1.4-2.3,2.836a35.761,35.761,0,0,0,5.276,50.3Z"/><path class="c" d="M392.522,196.3v27.492c0,8.622,6.368,14.985,17.623,14.985,10.6,0,17.514-5.786,17.514-15.224V196.3h-6.15v25.492c0,8.949-3.828,11.837-10.778,11.837-7.272,0-10.149-3.7-10.149-12.019V196.3Z"/><path class="c" d="M279.335,206.252c0-3.418,2.348-5.417,6.918-5.417,4.981,0,8.258,1.387,12.336,4.051v-6.752a32.011,32.011,0,0,0-12.372-2.436c-9.1,0-15.582,4.482-15.582,11.229,0,13.821,21.217,11.588,21.217,20.875,0,3.688-2.706,5.765-6.6,5.765-5.745,0-10.871-2.872-14.543-5.916v6.934c4.155,2.981,9.484,4.119,15.063,4.119,8.939,0,14.7-4.675,14.7-11.676C300.552,212.256,279.335,215.165,279.335,206.252Z"/><path class="c" d="M471.544,208.595c0-9.105-7.64-12.3-15.011-12.3H437.881v41.812h8.061V221.444h7.692l9.515,16.662h9.287l-10.056-17.634C466.89,219.263,471.544,215.6,471.544,208.595Zm-25.58-7.142h7.9c5.4,0,9.017,2.446,9.017,7.511,0,5.4-4.306,7.272-9.017,7.272h-7.9Z"/><polygon class="c" points="376.348 238.107 386.43 238.107 368.973 214.843 385.432 196.295 378.561 196.295 358.086 219.372 358.086 196.295 350.025 196.295 350.025 238.107 358.086 238.107 358.086 227.106 363.509 220.998 376.348 238.107"/><path class="c" d="M335.643,238.107h8.648l-16.335-42.113h-8.191L303.43,238.1h6.6l4.3-11.068h17.026ZM316.316,221.9l6.518-16.813,6.524,16.813Z"/><path class="c" d="M508.852,238.107H517.5l-16.335-42.113h-8.191L476.639,238.1h6.6l4.3-11.068h17.026ZM489.525,221.9l6.529-16.813,6.524,16.813Z"/><rect class="c" x="273.544" y="264.7" width="7.646" height="31.06"/><circle class="c" cx="277.366" cy="256.577" r="4.54"/><path class="c" d="M362.47,264.04c-9.349,0-14.844,6.628-14.844,16.1v.3c0,9.869,6.233,15.946,15.873,15.946a21.815,21.815,0,0,0,11.427-3.054v-5.287a18.252,18.252,0,0,1-11.318,3.947c-4.462,0-7.739-3.08-7.739-10.087h20.9C376.774,270.793,372.557,264.04,362.47,264.04Zm-6.513,13.447c.244-5.438,1.937-9.032,6.513-9.032,4.342,0,5.926,3.963,6.061,9.027Z"/><path class="c" d="M456.46,264.04c-9.349,0-14.844,6.628-14.844,16.1v.3c0,9.869,6.233,15.946,15.873,15.946a21.815,21.815,0,0,0,11.427-3.054v-5.287a18.252,18.252,0,0,1-11.318,3.947c-4.462,0-7.739-3.08-7.739-10.087h20.9C470.759,270.793,466.542,264.04,456.46,264.04Zm-6.513,13.447c.244-5.438,1.958-9.032,6.513-9.032,4.342,0,5.926,3.963,6.061,9.027Z"/><path class="c" d="M334.069,287.356V269.12h9.006V264.7h-9.006v-9.2h-7.646v9.2h-4.155v4.42h4.155v18.7c0,5.033,4.155,8.586,10.248,8.586a11.2,11.2,0,0,0,6.477-1.636v-3.875a13.047,13.047,0,0,1-4.768.847A4.085,4.085,0,0,1,334.069,287.356Z"/><path class="c" d="M307.445,264.04A13.9,13.9,0,0,0,297.29,269.3v-4.6h-7.646v31.055h7.646V274a8.332,8.332,0,0,1,6.976-4.747,4.508,4.508,0,0,1,4.581,4.435q0,.047,0,.094V295.76h7.646V272.091C316.493,268.289,313.849,264.04,307.445,264.04Z"/><path class="c" d="M426.044,264.04A13.9,13.9,0,0,0,415.89,269.3v-4.6h-7.646v31.055h7.646V274a8.332,8.332,0,0,1,6.976-4.747,4.508,4.508,0,0,1,4.581,4.435q0,.047,0,.094V295.76h7.646V272.091C435.092,268.289,432.448,264.04,426.044,264.04Z"/><path class="c" d="M391.317,270.185V264.7h-7.646v31.06h7.646V274.917c3.158-3.433,6.835-4.721,11.541-4.721v-5.8A14.221,14.221,0,0,0,391.317,270.185Z"/><path class="c" d="M486.907,287.356V269.12h9.006V264.7h-9.006v-9.2h-7.646v9.2h-4.155v4.42h4.155v18.7c0,5.033,4.155,8.586,10.248,8.586a11.2,11.2,0,0,0,6.477-1.636v-3.875a13.047,13.047,0,0,1-4.768.847A4.087,4.087,0,0,1,486.907,287.356Z"/></svg>