<svg xmlns="http://www.w3.org/2000/svg" width="640" height="480" viewBox="0 0 640 480"><defs><style>.a{fill:#002d73;}</style></defs><title>Artboard 4</title><polygon class="a" points="127.441 218.04 92.892 198.113 58.343 218.04 58.343 267.211 107.699 267.203 107.699 229.43 92.892 220.89 78.086 229.43 78.08 247.464 87.956 241.784 87.956 235.131 92.892 232.285 92.892 232.285 97.828 235.131 97.828 257.34 68.214 257.34 68.214 223.741 92.892 209.508 92.892 209.508 117.57 223.741 117.568 247.464 127.437 241.782 127.441 218.04"/><path class="a" d="M193.92,226.9l-6.422,6.123q-6.554-6.927-14.746-6.927a16.16,16.16,0,0,0-16.384,16.382,17.232,17.232,0,0,0,2.1,8.569,15.03,15.03,0,0,0,5.931,5.876,17.22,17.22,0,0,0,8.52,2.134,17.556,17.556,0,0,0,7.307-1.494,26.193,26.193,0,0,0,7.275-5.433l6.226,6.5a34.183,34.183,0,0,1-10.1,7.235,27.584,27.584,0,0,1-10.856,2.018q-11.249,0-18.416-7.134t-7.166-18.284a25.023,25.023,0,0,1,3.264-12.824,24.267,24.267,0,0,1,9.347-9.019,26.359,26.359,0,0,1,13.1-3.411A27.81,27.81,0,0,1,193.92,226.9Z"/><path class="a" d="M198.4,217.945h8.954V267.4H198.4Z"/><path class="a" d="M230.563,229.661a19.159,19.159,0,0,1,9.617,2.558,18.756,18.756,0,0,1,9.551,16.41,18.978,18.978,0,0,1-2.541,9.567,18.332,18.332,0,0,1-6.926,6.96,19.13,19.13,0,0,1-9.667,2.508,18.029,18.029,0,0,1-13.271-5.531,19.16,19.16,0,0,1,.714-27.556A18.149,18.149,0,0,1,230.563,229.661Zm.149,8.538a9.335,9.335,0,0,0-7.038,2.94,10.441,10.441,0,0,0-2.811,7.524,10.632,10.632,0,0,0,2.778,7.641,9.292,9.292,0,0,0,7.038,2.923,9.4,9.4,0,0,0,7.088-2.956,11.657,11.657,0,0,0,.05-15.165A9.4,9.4,0,0,0,230.713,238.2Z"/><path class="a" d="M254.208,230.114h9.052v18.348a23.8,23.8,0,0,0,.69,6.969,6.083,6.083,0,0,0,2.219,3.034,6.351,6.351,0,0,0,3.765,1.082,6.574,6.574,0,0,0,3.8-1.066,6.249,6.249,0,0,0,2.318-3.132,24.007,24.007,0,0,0,.559-6.592V230.114h8.954V246.4q0,9.347-1.476,12.791a13.947,13.947,0,0,1-5.313,6.445,16.266,16.266,0,0,1-8.921,2.247,15.821,15.821,0,0,1-9.495-2.624,13.858,13.858,0,0,1-5.1-7.314q-1.05-3.247-1.05-11.807Z"/><path class="a" d="M318.015,217.95h8.953v49.261h-8.953v-4.478a17.561,17.561,0,0,1-5.258,3.591,14.72,14.72,0,0,1-5.717,1.1,15.882,15.882,0,0,1-11.957-5.362,18.706,18.706,0,0,1-5.045-13.332q0-8.265,4.881-13.545a15.551,15.551,0,0,1,11.859-5.281,15.072,15.072,0,0,1,6.027,1.214,16.455,16.455,0,0,1,5.209,3.64ZM308.6,238.168a9.048,9.048,0,0,0-6.9,2.935,10.579,10.579,0,0,0-2.746,7.527,10.686,10.686,0,0,0,2.794,7.609,9.054,9.054,0,0,0,6.881,2.985,9.223,9.223,0,0,0,7-2.935,10.731,10.731,0,0,0,2.779-7.691,10.423,10.423,0,0,0-2.779-7.543A9.34,9.34,0,0,0,308.6,238.168Z"/><path class="a" d="M391.58,226.329l-6.467,6.4q-6.139-6.494-14.312-6.494a16.357,16.357,0,0,0-11.933,4.723,15.487,15.487,0,0,0-4.809,11.479,15.889,15.889,0,0,0,4.99,11.84,16.975,16.975,0,0,0,12.313,4.854,15.1,15.1,0,0,0,8.027-2,14.08,14.08,0,0,0,5.269-6.264H370.688v-8.626h24.27l.065,2.033a23.619,23.619,0,0,1-3.28,12,22.923,22.923,0,0,1-8.494,8.658,24.21,24.21,0,0,1-12.234,2.985,27.167,27.167,0,0,1-13.4-3.264,23.866,23.866,0,0,1-9.314-9.3,25.927,25.927,0,0,1-3.427-13.02,24.2,24.2,0,0,1,6.33-16.661q7.511-8.429,19.547-8.429a29.786,29.786,0,0,1,11.774,2.328A27,27,0,0,1,391.58,226.329Z"/><path class="a" d="M427.476,230.114h8.953v37.195h-8.953v-4.577a17.561,17.561,0,0,1-5.258,3.591,14.72,14.72,0,0,1-5.717,1.1,15.882,15.882,0,0,1-11.957-5.362,18.706,18.706,0,0,1-5.045-13.332q0-8.265,4.881-13.545A15.551,15.551,0,0,1,416.24,229.9a15.072,15.072,0,0,1,6.027,1.214,16.455,16.455,0,0,1,5.209,3.64Zm-9.413,8.053a9.048,9.048,0,0,0-6.9,2.935,10.579,10.579,0,0,0-2.746,7.527,10.686,10.686,0,0,0,2.794,7.609,9.054,9.054,0,0,0,6.881,2.985,9.223,9.223,0,0,0,7-2.935,10.731,10.731,0,0,0,2.779-7.691,10.423,10.423,0,0,0-2.779-7.543A9.34,9.34,0,0,0,418.064,238.168Z"/><path class="a" d="M440.907,230.114h7.675v5.412a9.583,9.583,0,0,1,3.313-4.034,7.991,7.991,0,0,1,4.526-1.377,8.38,8.38,0,0,1,3.641.918l-2.788,7.707a6.159,6.159,0,0,0-2.591-.787q-2.066,0-3.493,2.559t-1.427,10.036l.033,1.738v14.908h-8.888Z"/><path class="a" d="M488.036,230.064h8.953v37.147h-8.953v-3.984a17.561,17.561,0,0,1-5.258,3.591,14.72,14.72,0,0,1-5.717,1.1,15.882,15.882,0,0,1-11.957-5.362,18.706,18.706,0,0,1-5.045-13.332q0-8.265,4.881-13.545A15.551,15.551,0,0,1,476.8,230.4a15.072,15.072,0,0,1,6.027,1.214,16.455,16.455,0,0,1,5.209,3.64Zm-9.413,8.6a9.048,9.048,0,0,0-6.9,2.935,10.579,10.579,0,0,0-2.746,7.527,10.686,10.686,0,0,0,2.794,7.609,9.054,9.054,0,0,0,6.881,2.985,9.223,9.223,0,0,0,7-2.935,10.731,10.731,0,0,0,2.779-7.691,10.423,10.423,0,0,0-2.779-7.543A9.34,9.34,0,0,0,478.624,238.661Z"/><path class="a" d="M530.1,230.114h9.141v32.213q0,9.276-3.731,13.645-5.008,5.915-15.09,5.915a26.436,26.436,0,0,1-9.04-1.344,15.762,15.762,0,0,1-9.915-10.284h10.116a8.365,8.365,0,0,0,3.462,2.336,14.328,14.328,0,0,0,5.007.79A13.2,13.2,0,0,0,526,272.241a6.9,6.9,0,0,0,3.176-2.957q.924-1.815.924-6.251a15.2,15.2,0,0,1-5.075,3.478,16.136,16.136,0,0,1-6.016,1.059,16.533,16.533,0,0,1-12.435-5.31,18.674,18.674,0,0,1-5.075-13.443q0-8.7,5.377-13.981a16.043,16.043,0,0,1,11.629-4.772,15.465,15.465,0,0,1,5.965,1.16,18.908,18.908,0,0,1,5.629,3.814Zm-9.511,8.519a9.556,9.556,0,0,0-7.158,2.907,10.07,10.07,0,0,0-2.823,7.31,10.209,10.209,0,0,0,2.89,7.495,9.786,9.786,0,0,0,7.259,2.924,9.393,9.393,0,0,0,7.041-2.857,10.3,10.3,0,0,0,2.773-7.494,10.182,10.182,0,0,0-2.789-7.428A9.615,9.615,0,0,0,520.589,238.633Z"/><path class="a" d="M581.623,251.539H552.489a9.7,9.7,0,0,0,3.372,6.129,10.578,10.578,0,0,0,6.993,2.276,12.091,12.091,0,0,0,8.737-3.554l7.641,3.588a18.035,18.035,0,0,1-6.843,6,21.4,21.4,0,0,1-9.468,1.943q-8.5,0-13.853-5.365a18.257,18.257,0,0,1-5.349-13.438,18.875,18.875,0,0,1,5.332-13.736,17.908,17.908,0,0,1,13.371-5.465q8.538,0,13.886,5.465t5.349,14.434Zm-9.069-7.142a9.1,9.1,0,0,0-3.544-4.917,10.276,10.276,0,0,0-6.14-1.894,10.859,10.859,0,0,0-6.655,2.126,11.855,11.855,0,0,0-3.328,4.684Z"/></svg>