<svg xmlns="http://www.w3.org/2000/svg" width="640" height="480" viewBox="0 0 640 480"><title>logo-shoeisha</title><path d="M317.827,189.248h-38.77s2.323-13.606-16.78-13.606-18.509,12.7-9.834,15.335c9.55,2.9,34.927,7.636,54.392,17.645a31.271,31.271,0,0,1,13.895,15.343V151.343h108.2v33.274H358.918v14.458h60.174v30.672H358.918v16.208H429.5V280.38H320.428V256.946s-8.1,28.948-57.571,28.057c-64.22-1.158-59.017-49.469-59.017-49.469h39.921s-2.888,16.487,21.7,16.487c26.907,0,16.78-15.615,10.705-17.944-23.3-8.864-68.277-6.646-68.563-47.445-.266-37.052,38.177-40.791,55.544-40.791C324.195,145.842,317.827,189.248,317.827,189.248Z"/><path d="M225.94,308.481c-.546-5.021-3.895-7.179-8.715-7.179-3.928,0-7.877,1.424-7.877,6,0,4.331,5.62,4.97,11.278,6.25,5.6,1.274,11.212,3.245,11.212,10.132,0,7.473-7.33,10.477-13.722,10.477-7.87,0-14.516-3.837-14.516-12.4h4.421c0,5.9,4.918,8.462,10.239,8.462,4.228,0,8.9-1.333,8.9-6.4,0-4.819-5.612-5.651-11.212-6.88s-11.265-2.855-11.265-9.294c0-7.135,6.347-10.289,12.74-10.289,7.18,0,12.631,3.395,12.936,11.121Z"/><polygon points="235.02 298.199 239.703 298.199 239.703 313.302 258.195 313.302 258.195 298.199 262.876 298.199 262.876 333.326 258.195 333.326 258.195 317.236 239.703 317.236 239.703 333.326 235.02 333.326 235.02 298.199"/><path d="M295.571,315.76c0-7.082-3.589-14.457-12.15-14.457s-12.148,7.376-12.148,14.457,3.591,14.464,12.148,14.464,12.15-7.38,12.15-14.464h4.678c0,9.548-5.66,18.4-16.827,18.4s-16.818-8.851-16.818-18.4,5.651-18.4,16.818-18.4,16.827,8.858,16.827,18.4Z"/><polygon points="303.973 298.199 328.22 298.199 328.22 302.135 308.643 302.135 308.643 313.302 326.892 313.302 326.892 317.237 308.643 317.236 308.643 329.386 328.363 329.386 328.363 333.326 303.973 333.326 303.973 298.199"/><rect x="333.475" y="298.199" width="4.67" height="35.127"/><path d="M364.356,308.481c-.546-5.021-3.888-7.179-8.709-7.179-3.935,0-7.877,1.424-7.877,6,0,4.331,5.614,4.97,11.265,6.25,5.606,1.274,11.226,3.245,11.226,10.132,0,7.473-7.336,10.477-13.736,10.477-7.856,0-14.51-3.837-14.51-12.4h4.428c0,5.9,4.93,8.462,10.237,8.462,4.228,0,8.9-1.333,8.9-6.4,0-4.819-5.606-5.651-11.212-6.88s-11.258-2.855-11.258-9.294c0-7.135,6.341-10.289,12.741-10.289,7.18,0,12.643,3.395,12.931,11.121Z"/><polygon points="373.935 298.199 378.613 298.199 378.612 313.302 397.102 313.302 397.102 298.199 401.78 298.199 401.778 333.326 397.102 333.326 397.102 317.236 378.612 317.236 378.612 333.326 373.935 333.326 373.935 298.199"/><polygon points="414.025 318.81 425.914 318.81 420.074 302.434 419.969 302.434 414.025 318.81 412.548 322.745 408.608 333.326 403.788 333.326 417.511 298.199 422.676 298.199 436.399 333.326 431.233 333.326 427.397 322.746 412.548 322.745 414.025 318.81"/></svg>