<svg xmlns="http://www.w3.org/2000/svg" width="640" height="480" viewBox="0 0 640 480"><defs><style>.a{fill:#fff;}.b{fill:#ee464c;}.c{fill:#77c9b5;}</style></defs><title>logo-panic</title><polygon class="a" points="396.332 295.513 243.814 295.27 264.877 184.434 396.332 184.434 396.332 295.513"/><path class="b" d="M414.385,240.047a31.9,31.9,0,0,0,9.05-33.6c-3.933-12.13-15.209-20.489-27.063-22.015L380.38,268.576H281.673L276.6,295.27H243.814c-2.334,11.811,1.845,25.118,12.222,32.664a31.9,31.9,0,0,0,34.749,1.812,31.9,31.9,0,0,0,58.333.033,31.906,31.906,0,0,0,47.213-34.267,31.9,31.9,0,0,0,18.053-55.466"/><polygon class="b" points="357.837 213.179 292.593 213.179 287.517 239.884 352.76 239.884 357.837 213.179"/><path class="c" d="M396.372,184.435c2.21-11.738-2.11-24.882-12.4-32.376a31.912,31.912,0,0,0-34.755-1.812,31.905,31.905,0,0,0-58.333-.033,31.907,31.907,0,0,0-47.211,34.264,31.9,31.9,0,0,0-18.055,55.469,31.907,31.907,0,0,0-9.05,33.6c3.953,12.186,15.317,20.26,27.247,21.726l21.066-110.836Z"/></svg>