<svg xmlns="http://www.w3.org/2000/svg" width="640" height="480" viewBox="0 0 640 480"><defs><style>.a{fill:#e89213;}</style></defs><title>logo-dotinstall</title><path class="a" d="M140.334,202.6c-4.2-4.213-25.246-5.408-25.246-5.408l-27.047.6L65.8,201.394l-1.2,4.21,1.2,25.845L64,242.88l2.4,27.643s3.6,6.607,8.412,8.417,31.866,3.606,31.866,3.606,25.84.6,27.647,0,7.81-6.613,7.81-6.613l-2.4-18.628,2.4-43.889s2.411-6.61-1.8-10.82Zm-50.492,33.66-.6-26.448,16.834-2.395-1.81,13.222.6,13.823,18.64.6-23.442,19.833-21.04-18.029Zm-7.209,32.461-1.206-6L124.7,258.5l2.411,9.012Zm232.752-65.959-24.113,41.361,2.062,7.58,17.924-6.2-4.829,24.812,18.615,3.44-4.131-40.667,12.4-22.739Zm26.2,13.789-5.52,11.73,12.419,6.883,6.2-8.274Zm26.189,12.4v4.133l-22.742,24.129L354,270.993l27.567-40.647Zm21.372-11.73v13.806l18.607-1.381L384.321,258.6l.685,7.564,10.34,4.144,11.028-22.737,7.578,18.593,14.482.7h6.89l-17.24-33.08,6.9-17.239Zm56.515-14.464-2.072,45.5v17.914l15.168,2.76-.687-31.011,11.017,4.823h9.656l2.073-15.158-20.692-.7,2.073-19.98,2.763-2.76Zm43.425,29.918-2.073,13.785,23.432-4.131V228.55Zm35.222-7.961,12.4.686-10.327,35.842H511.911Zm22.06-6.2-4.832,12.391-.679,41.372,19.294-9.653,6.891-8.276L576,226.1l-15.849,12.4-6.2,6.9,2.065-25.505-7.576-4.821ZM184.263,206.171l-1.9,23.719,24.716,9.62-11.251,6.505-14.6-7.385,1.13,32.864-15.511-2.258,1.126-26.632-3.925-32.42Zm7.009,7.8,8.38-5.1,1.791,2.552,2.995,15.291-5.383.841Zm14.49-8.328,8.971.837-.58,16.143-5.995,1.7Zm5.656,52.4-4.615-8.677-4.083,1.289,2.922,11.876Zm9.574-2.993-7.573-8.495-3.489,2.13,4.129,11.985Zm8.463-5.793,12.486,2.114-23.6,26.343-7.635-3.83Zm12.122-39.668,7.019,33.766-1.2,25.056,15.472,5.989-1.6-30.819,18.437,1.015,9.217-9.2-26.542-1.151,2.648-30.957Z"/></svg>