<svg xmlns="http://www.w3.org/2000/svg" width="640" height="480" viewBox="0 0 640 480"><defs><style>.a{fill:#0b7bff;}.b{fill:#f8fbff;}</style></defs><title>Artboard 6</title><path class="a" d="M110,187.5H530v105H110Z"/><path class="b" d="M187.49,218.624c3.574-.036,7.15-.017,10.727-.008q4.492,9.459,9.013,18.911c2.877-6.3,5.771-12.587,8.614-18.9,3.438-.036,6.878-.027,10.315,0-4.763,8.95-9.574,17.877-14.351,26.821a3.546,3.546,0,0,0-.2,1.686c.008,5,0,9.992,0,14.988-3.026.008-6.052,0-9.078,0q0-7.913,0-15.828a1.5,1.5,0,0,0-.155-.806Q194.924,232.062,187.49,218.624Z"/><path class="b" d="M332.146,218.624c3.041-.042,6.082-.011,9.125-.013q.006,17.838,0,35.677c7.176.053,14.351,0,21.527.023,0,2.6,0,5.2,0,7.808q-15.328,0-30.658,0Q332.143,240.367,332.146,218.624Z"/><path class="b" d="M401.9,218.656c2.789,0,5.578,0,8.366,0,.008,5.143-.008,10.288.008,15.433a12.841,12.841,0,0,1,3.935-3.623,10.66,10.66,0,0,1,4.908-1.241,13,13,0,0,1,7.571,1.949,13.993,13.993,0,0,1,5.206,6.934,22.55,22.55,0,0,1,1.2,8.394,20,20,0,0,1-4.156,12.329,11.45,11.45,0,0,1-8.562,4.122,12.565,12.565,0,0,1-6.852-1.428,11.725,11.725,0,0,1-3.352-3.415c-.048,1.333-.017,2.667-.025,4-2.759.006-5.517.01-8.276,0C401.885,247.629,401.837,233.141,401.9,218.656Z"/><path class="b" d="M268.785,230.781a17.309,17.309,0,0,1,9.221-1.743c3.249.2,6.636.92,9.244,2.976,2.3,1.856,3.318,4.851,3.534,7.713-2.806-.008-5.611.038-8.415-.023a4.28,4.28,0,0,0-1.659-3.238,7.859,7.859,0,0,0-5.027-.96,4.756,4.756,0,0,0-3.387,1.315,2.318,2.318,0,0,0-.061,3.068,4.431,4.431,0,0,0,1.991,1.019c2.619.783,5.3,1.336,7.955,1.964,2.734.71,5.54,1.787,7.478,3.931a8.62,8.62,0,0,1,1.909,7.247,9.918,9.918,0,0,1-5.672,7.558c-3.171,1.472-6.754,1.684-10.2,1.581-3.475-.181-7.176-.874-9.857-3.257a10.559,10.559,0,0,1-3.532-8.079c2.843-.008,5.685,0,8.528-.006.21,1.289.479,2.747,1.6,3.576,1.648,1.2,3.8,1.3,5.764,1.27a6.741,6.741,0,0,0,4.3-1.277,2.484,2.484,0,0,0-.846-3.975c-3.8-1.514-7.915-2-11.76-3.373a10.934,10.934,0,0,1-5.317-3.467,9.063,9.063,0,0,1-1.117-6.668A10.753,10.753,0,0,1,268.785,230.781Z"/><path class="b" d="M300.212,232.39c2.614-2.539,6.386-3.366,9.925-3.383,3.591.015,7.367.611,10.359,2.73,2.528,1.821,3.673,4.981,3.889,7.991-2.8,0-5.6.013-8.4,0a4.43,4.43,0,0,0-1.552-3.171,7.451,7.451,0,0,0-4.92-1.058,4.962,4.962,0,0,0-3.616,1.329,2.323,2.323,0,0,0-.153,2.953,3.4,3.4,0,0,0,1.661,1c3.018.968,6.149,1.512,9.208,2.323,2.673.783,5.41,2,7.125,4.29a9.294,9.294,0,0,1,1.09,8.2,10.131,10.131,0,0,1-6.038,6.329,24.049,24.049,0,0,1-9.7,1.262c-3.268-.2-6.71-.844-9.311-2.967a10.541,10.541,0,0,1-3.866-8.362c2.843,0,5.689,0,8.532,0,.2,1.34.515,2.86,1.724,3.669,1.77,1.176,4.007,1.224,6.061,1.161a6.1,6.1,0,0,0,3.969-1.357,2.489,2.489,0,0,0-.937-3.883c-3.242-1.277-6.707-1.852-10.048-2.81a16.172,16.172,0,0,1-6.021-2.915,6.925,6.925,0,0,1-2.257-4.874A10.078,10.078,0,0,1,300.212,232.39Z"/><path class="b" d="M232.94,232.322c2.407-2.209,5.769-2.948,8.942-3.114a20.375,20.375,0,0,1,11.506,2.432c2.363,1.42,3.385,4.259,3.457,6.9.04,5.783-.013,11.569.027,17.352a12.4,12.4,0,0,0,.346,3.61,2.782,2.782,0,0,0,1.4,1.355c.015.42.021.842.029,1.264-3.039.015-6.077-.017-9.116.017a15.319,15.319,0,0,1-.863-3.721,13.767,13.767,0,0,1-8.673,4.614,10.9,10.9,0,0,1-8.866-2.619,8.432,8.432,0,0,1-2.535-5.294,11.787,11.787,0,0,1,1.033-6.613,9.454,9.454,0,0,1,5.561-4.471c3.24-1.14,6.714-1.174,10.061-1.812,1.231-.252,2.678-.766,3.108-2.079a3.11,3.11,0,0,0-1.14-3.364,7.191,7.191,0,0,0-3.226-.821,7.386,7.386,0,0,0-4.454.853,5.181,5.181,0,0,0-1.877,3.534q-4.06.013-8.121,0A11.483,11.483,0,0,1,232.94,232.322Z"/><path class="b" d="M373.214,230.647a18.277,18.277,0,0,1,7.684-1.468,20.818,20.818,0,0,1,8.158,1.424,8.5,8.5,0,0,1,3.872,2.663,9.438,9.438,0,0,1,1.682,5.475c.027,5.878-.023,11.758.027,17.636a10.283,10.283,0,0,0,.344,3.133,2.849,2.849,0,0,0,1.407,1.359q.006.636-.013,1.273c-3.032-.034-6.063-.023-9.093-.006a12.666,12.666,0,0,1-.819-3.776,16.482,16.482,0,0,1-4.561,3.494,12.774,12.774,0,0,1-6.474,1.241,10.155,10.155,0,0,1-6.644-2.785,8.5,8.5,0,0,1-2.453-5.384,12.074,12.074,0,0,1,.821-5.941,9.155,9.155,0,0,1,5.168-4.725,35.907,35.907,0,0,1,8.69-1.711,10.005,10.005,0,0,0,4.192-1.184c1.68-1.144,1.187-4.1-.655-4.815a10.049,10.049,0,0,0-4.486-.582,4.852,4.852,0,0,0-3.53,1.541,6.7,6.7,0,0,0-1.117,2.837q-4.06,0-8.117,0a12.648,12.648,0,0,1,2.111-6.588A9.857,9.857,0,0,1,373.214,230.647Z"/><path class="a" d="M416.291,236.627a6.786,6.786,0,0,1,5.336,1.527,8.569,8.569,0,0,1,2.331,4.748,18.066,18.066,0,0,1-.149,7.51,8.439,8.439,0,0,1-2.554,4.326,6.419,6.419,0,0,1-5.311,1.166,5.908,5.908,0,0,1-4-2.457,12.752,12.752,0,0,1-1.909-7.99c.126-2.323.493-4.8,2.016-6.655A6.105,6.105,0,0,1,416.291,236.627Z"/><path class="a" d="M239.383,249.127c2.9-1.247,6.3-.918,9.032-2.621.032,2.486.262,5.176-1.01,7.426a7.11,7.11,0,0,1-4.635,2.9,5.678,5.678,0,0,1-4.467-.672c-1.294-.941-1.5-2.728-1.258-4.2A3.866,3.866,0,0,1,239.383,249.127Z"/><path class="a" d="M383.21,247.682a13.169,13.169,0,0,0,3-1.147c-.046,2.344.21,4.826-.836,7.008-.88,1.886-2.944,2.835-4.866,3.291-1.533.254-3.295.29-4.555-.766a4.235,4.235,0,0,1-1.186-3.9,3.871,3.871,0,0,1,2.388-3.047A36.65,36.65,0,0,1,383.21,247.682Z"/><path class="b" d="M438.879,253.31c2.978.008,5.953,0,8.931,0q.006,4.4,0,8.807c-2.99,0-5.983.011-8.973-.006C438.862,259.179,438.782,256.244,438.879,253.31Z"/></svg>