<svg xmlns="http://www.w3.org/2000/svg" width="640" height="480" viewBox="0 0 640 480"><defs><style>.a{fill:#231815;}.b{fill:#87cefa;}</style></defs><title>logo-rally</title><path class="a" d="M266.736,180.453a5.251,5.251,0,0,0-3.159-4.836l-81.023-35.183a5.248,5.248,0,0,0-7.339,4.815V250.558a5.249,5.249,0,0,0,10.5,0V218.334l77.827-33.071a5.249,5.249,0,0,0,3.2-4.81"/><path class="a" d="M368.055,276.462H349.28V225.934a5.249,5.249,0,0,0-10.5,0v55.777a5.249,5.249,0,0,0,5.25,5.248h24.023a5.249,5.249,0,1,0,0-10.5"/><path class="a" d="M415.622,276.462H396.847V225.934a5.249,5.249,0,0,0-10.5,0v55.777a5.248,5.248,0,0,0,5.248,5.248h24.025a5.249,5.249,0,1,0,0-10.5"/><path class="a" d="M305.037,224.224a5.249,5.249,0,0,0-9.924,0L275.876,280a5.248,5.248,0,1,0,9.922,3.424l14.277-41.39,14.275,41.39A5.249,5.249,0,0,0,324.274,280Z"/><path class="a" d="M462.2,221.411a5.25,5.25,0,0,0-7.186,1.862l-13.962,23.735-13.962-23.735a5.25,5.25,0,0,0-9.049,5.323L435.8,258.79v22.92a5.25,5.25,0,1,0,10.5,0V258.79L464.06,228.6a5.25,5.25,0,0,0-1.864-7.186"/><path class="a" d="M266.248,294.92a5.224,5.224,0,0,0-1.528-3.616l0,0-17.025-17.023a28.089,28.089,0,0,0-11.8-53.592h-22.06a5.248,5.248,0,0,0-5.248,5.248V309.5h-4.677a5.249,5.249,0,1,0,0,10.5h9.925a5.249,5.249,0,0,0,5.25-5.25V231.184h16.81a17.614,17.614,0,0,1,0,35.227h-4.3a5.249,5.249,0,1,0,0,10.5h3.881l18.108,18.107-3.247,3.245a5.249,5.249,0,1,0,7.422,7.424l6.955-6.954,0,0a5.217,5.217,0,0,0,1.527-3.6c0-.037.011-.072.011-.107s-.01-.064-.01-.1"/><path class="b" d="M190.262,155.226c-2.5-1.087-4.55.256-4.55,2.985v43.757c0,2.727,2.054,4.088,4.565,3.02l53.345-22.668c2.511-1.066,2.518-2.829.016-3.915Z"/></svg>