<svg xmlns="http://www.w3.org/2000/svg" width="640" height="480" viewBox="0 0 640 480"><defs><style>.a{fill:#00b9e7;}.b{fill:#99d6f2;}</style></defs><title>logo-smartrobotics</title><path class="a" d="M242.819,278.555a13.144,13.144,0,0,0-7.461,2.317l-33.9-27.77c-.077-.079-.157-.161-.238-.251a1.174,1.174,0,0,1,.859-2.017h6.017a20.888,20.888,0,0,0,20.887-20.856V221.6a20.9,20.9,0,0,0-20.88-20.884l-14.953-.022a21.072,21.072,0,0,0-13.775-13.758v-5.758a6.173,6.173,0,1,0-12.347,0v5.758a21.061,21.061,0,0,0-13.767,13.758h-3.613l-11.395.022A20.908,20.908,0,0,0,117.368,221.6v8.378a20.9,20.9,0,0,0,20.882,20.875h5.814a8.534,8.534,0,0,1,8.52,8.533v17.68a8.535,8.535,0,0,1-8.52,8.526H133.012a13.213,13.213,0,0,0-25.034,5.913v.269a12.09,12.09,0,0,0,1.035,4.873,13.225,13.225,0,0,0,23.726,1.3h11.325a20.908,20.908,0,0,0,20.88-20.884v-17.68a20.91,20.91,0,0,0-20.88-20.886H138.25a8.528,8.528,0,0,1-8.526-8.522V221.6a8.533,8.533,0,0,1,8.526-8.528l11.395-.028H158.5a6.179,6.179,0,0,0,6.174-6.177,8.531,8.531,0,0,1,17.062,0,6.174,6.174,0,0,0,6.174,6.177l20.193.028a8.534,8.534,0,0,1,8.528,8.528v8.378a8.531,8.531,0,0,1-8.535,8.5h-6.129v0a13.524,13.524,0,0,0-9.641,22.933l37.294,29.964c0,.131-.017.266-.017.4a13.223,13.223,0,1,0,13.219-13.227"/><path class="a" d="M190.362,225.873a5.222,5.222,0,1,0-5.208,5.225,5.22,5.22,0,0,0,5.208-5.225"/><path class="a" d="M160.631,220.945a5.22,5.22,0,1,0,5.215,5.221,5.224,5.224,0,0,0-5.215-5.221"/><path class="a" d="M304.415,294.124a11.575,11.575,0,0,1-7.179-2.616,13.408,13.408,0,0,1-4.626-6.314l-3.936-11.1h10.573a2.343,2.343,0,0,0,1.948-1.022,3.579,3.579,0,0,0,.743-2.137,3.5,3.5,0,0,0-.743-2.167,2.4,2.4,0,0,0-1.955-1H285.629v26.356h-8.267V259.5h21.887a10.272,10.272,0,0,1,7.781,3.4,11.878,11.878,0,0,1,.486,15.606,10.348,10.348,0,0,1-6.8,3.8l-.346.041.142.3c.939,2.125,2.245,3.2,3.9,3.2h5.292v8.279Z"/><path class="a" d="M353.4,294.232V259.609H376a9.951,9.951,0,0,1,7.3,3.035,10.081,10.081,0,0,1,3.009,7.313,11.537,11.537,0,0,1-1.958,6.846l-.108.142.108.149a10.14,10.14,0,0,1,1.958,6.011v.831A10.312,10.312,0,0,1,376,294.232Zm8.279-8.271H376a1.96,1.96,0,0,0,1.426-.606,1.933,1.933,0,0,0,.606-1.388c0-1.916-.685-2.882-2.032-2.882H367.5v-8.279H376a1.921,1.921,0,0,0,1.426-.606,1.971,1.971,0,0,0,.606-1.4c0-1.939-.685-2.92-2.032-2.92H361.677Z"/><path class="a" d="M407.951,295.389a16.938,16.938,0,0,1-12.642-5.408,18.546,18.546,0,0,1,0-25.753,17.48,17.48,0,0,1,25.255,0,18.6,18.6,0,0,1,0,25.753,16.839,16.839,0,0,1-12.613,5.408m0-28.287a8.952,8.952,0,0,0-6.8,2.983,10.309,10.309,0,0,0,0,14.054,9.163,9.163,0,0,0,13.537,0,10.309,10.309,0,0,0,0-14.054,8.888,8.888,0,0,0-6.737-2.983"/><path class="a" d="M446.208,294.229a11.211,11.211,0,0,1-7.029-2.582,13.816,13.816,0,0,1-4.618-6.235l-8.982-25.8H434.3l1.815,5.217h9.226v8.267h-6.363l3.323,9.521c.8,2.223,2.137,3.346,3.926,3.346H451.5v8.267Z"/><rect class="b" x="455.022" y="271.369" width="8.271" height="22.808"/><path class="b" d="M459.172,268.936a5.354,5.354,0,0,1-5.363-5.359,5.356,5.356,0,1,1,10.711,0,5.36,5.36,0,0,1-5.348,5.359"/><path class="a" d="M483.634,294.229a15.556,15.556,0,0,1-11.606-5.056,17.88,17.88,0,0,1,0-24.481,15.542,15.542,0,0,1,11.606-5.083h12.055v8.328H483.634a7.486,7.486,0,0,0-5.764,2.661,9.293,9.293,0,0,0-2.358,6.348,9.184,9.184,0,0,0,2.358,6.325,7.509,7.509,0,0,0,5.764,2.635h12.055v8.323Z"/><path class="a" d="M501.771,294.176v-8.271h19.956a1.84,1.84,0,0,0,1.4-.606,1.936,1.936,0,0,0,.606-1.437c0-2.339-1.093-2.829-2.01-2.829H509.406a10.377,10.377,0,0,1-10.3-10.352V269.9a10.364,10.364,0,0,1,10.3-10.348h20v8.267H509.365a1.884,1.884,0,0,0-1.381.614,2.035,2.035,0,0,0-.6,1.459c0,2.365,1.07,2.863,1.98,2.863H521.7a10.331,10.331,0,0,1,10.318,10.318v.778a10.338,10.338,0,0,1-10.3,10.322Z"/><path class="a" d="M280.582,241.284v-8.269h19.941a1.947,1.947,0,0,0,1.43-.6,2.029,2.029,0,0,0,.6-1.441c0-2.341-1.108-2.837-2.027-2.837H288.209a10.369,10.369,0,0,1-10.3-10.343v-.775a10.393,10.393,0,0,1,10.3-10.356h20.008v8.275H288.159a1.907,1.907,0,0,0-1.379.621,2,2,0,0,0-.584,1.448c0,2.369,1.055,2.859,1.963,2.859h12.349a10.319,10.319,0,0,1,10.317,10.32v.778a10.034,10.034,0,0,1-3.013,7.3,9.836,9.836,0,0,1-7.289,3.02Z"/><path class="a" d="M354.3,241.34V219.9a5.741,5.741,0,0,0-5.8-5.79,5.549,5.549,0,0,0-4.06,1.682,5.614,5.614,0,0,0-1.681,4.107V241.34h-8.324V219.9a5.723,5.723,0,0,0-5.794-5.79,5.757,5.757,0,0,0-5.743,5.79V241.34h-8.333V219.9a14.046,14.046,0,0,1,23.844-10.139l.157.165.172-.165A14.1,14.1,0,0,1,362.628,219.9V241.34Z"/><path class="a" d="M394.574,241.34l-4.626-13.2H376.621a1.872,1.872,0,0,0-1.359.612,2.013,2.013,0,0,0-.606,1.454c0,1.9.677,2.871,1.972,2.871h12.119v8.265h-12.07a10.369,10.369,0,0,1-10.288-10.294v-.831a10.376,10.376,0,0,1,10.288-10.352h10.446l-.112-.322a12.366,12.366,0,0,0-1.366-3.1,3.649,3.649,0,0,0-3.031-1.449H369.387v-8.275h13.227a11.608,11.608,0,0,1,7.234,2.723,13.751,13.751,0,0,1,4.57,6.265L403.4,241.34Z"/><path class="a" d="M433.184,241.34a11.586,11.586,0,0,1-7.179-2.606,13.293,13.293,0,0,1-4.626-6.331l-3.926-11.091h10.561a2.368,2.368,0,0,0,1.95-1.027,3.5,3.5,0,0,0,0-4.3,2.393,2.393,0,0,0-1.95-.994H414.407V241.34h-8.279V206.717h21.887a10.3,10.3,0,0,1,7.792,3.4,11.86,11.86,0,0,1,.487,15.594,10.332,10.332,0,0,1-6.808,3.806l-.329.047.131.3c.935,2.132,2.238,3.209,3.9,3.209h5.3v8.265Z"/><path class="a" d="M460.452,241.34a11.238,11.238,0,0,1-7.029-2.582,13.756,13.756,0,0,1-4.611-6.245l-8.982-25.8h8.694l1.83,5.213h14.417V220.2H453.218l3.323,9.525c.8,2.223,2.13,3.346,3.934,3.346h10.554v8.265Z"/><path class="b" d="M329.064,296.152a.614.614,0,0,1-.6-.543l-.408-4.113-.165-.041a14.385,14.385,0,0,1-3.793-1.568l-.157-.09-3.187,2.627a.658.658,0,0,1-.38.127.6.6,0,0,1-.43-.172l-3.658-3.675a.608.608,0,0,1-.051-.8l2.626-3.2-.08-.158a14.186,14.186,0,0,1-1.579-3.78l-.047-.168-4.108-.412a.608.608,0,0,1-.541-.6v-5.184a.6.6,0,0,1,.541-.595l4.108-.408.047-.168a14.318,14.318,0,0,1,1.579-3.791l.08-.146-2.626-3.2a.609.609,0,0,1,.051-.8l3.658-3.675a.625.625,0,0,1,.43-.157.611.611,0,0,1,.38.127l3.187,2.613.157-.082a14.46,14.46,0,0,1,3.793-1.568l.165-.049.408-4.11a.614.614,0,0,1,.6-.539h5.191a.611.611,0,0,1,.588.539l.4,4.11.172.049a14.741,14.741,0,0,1,3.81,1.568l.142.082,3.189-2.613a.627.627,0,0,1,.374-.127.593.593,0,0,1,.427.161l3.683,3.671a.646.646,0,0,1,.03.8l-2.616,3.2.086.149a14.857,14.857,0,0,1,1.572,3.791l.049.168,4.1.408a.619.619,0,0,1,.55.595V279.6a.613.613,0,0,1-.55.6l-4.1.412-.049.168a15.04,15.04,0,0,1-1.572,3.788l-.086.15,2.616,3.2a.618.618,0,0,1-.03.8l-3.683,3.675a.585.585,0,0,1-.427.172.68.68,0,0,1-.374-.127l-3.189-2.627-.142.09a15.143,15.143,0,0,1-3.81,1.568l-.172.041-.4,4.113a.617.617,0,0,1-.588.543Zm2.59-26.221a7.066,7.066,0,1,0,7.07,7.074,7.063,7.063,0,0,0-7.07-7.074"/></svg>