<svg data-name="レイヤー 1" xmlns="http://www.w3.org/2000/svg" width="200" height="150" viewBox="0 0 200 150"><title>アートボード 1</title><path d="M0 50h200v50H0z" fill="#0b7bff"/><path d="M36.9 64.8H42c1.4 3 2.9 6 4.3 9 1.4-3 2.7-6 4.1-9h4.9c-2.3 4.3-4.6 8.5-6.8 12.8a1.95 1.95 0 0 0-.1.8v7.1h-4.3V78a.6.6 0 0 0-.1-.4c-2.4-4.2-4.7-8.5-7.1-12.8zm68.9 0h4.3v17h10.3v3.7h-14.6zm33.2 0h4v7.3a5.194 5.194 0 0 1 1.9-1.7 4.645 4.645 0 0 1 2.3-.6 6.445 6.445 0 0 1 3.6.9 6.805 6.805 0 0 1 2.5 3.3 10.8 10.8 0 0 1 .6 4 9.77 9.77 0 0 1-2 5.9 5.776 5.776 0 0 1-4.1 2 6.356 6.356 0 0 1-3.3-.7 6.087 6.087 0 0 1-1.6-1.6v1.9H139zm-63.4 5.8a8.255 8.255 0 0 1 4.4-.8 7.67 7.67 0 0 1 4.4 1.4 5.155 5.155 0 0 1 1.7 3.7h-4a2.04 2.04 0 0 0-.8-1.5 4.025 4.025 0 0 0-2.4-.5 2.27 2.27 0 0 0-1.6.6 1.087 1.087 0 0 0 0 1.5 1.623 1.623 0 0 0 .9.5c1.2.4 2.5.6 3.8.9a7.418 7.418 0 0 1 3.6 1.9 4.273 4.273 0 0 1 .9 3.5 4.78 4.78 0 0 1-2.7 3.6 11.5 11.5 0 0 1-4.9.8 7.24 7.24 0 0 1-4.7-1.6 5.166 5.166 0 0 1-1.7-3.8h4.1a2.29 2.29 0 0 0 .8 1.7 4.312 4.312 0 0 0 2.7.6 2.81 2.81 0 0 0 2-.6 1.192 1.192 0 0 0-.4-1.9c-1.8-.7-3.8-1-5.6-1.6a5.342 5.342 0 0 1-2.5-1.7 4.41 4.41 0 0 1-.5-3.2 5.062 5.062 0 0 1 2.5-3.5zm15 .8a6.577 6.577 0 0 1 4.7-1.6 8.4 8.4 0 0 1 4.9 1.3 5.59 5.59 0 0 1 1.9 3.8h-4a2.356 2.356 0 0 0-.7-1.5 3.718 3.718 0 0 0-2.3-.5 2.114 2.114 0 0 0-1.7.6 1.07 1.07 0 0 0-.1 1.4 2.177 2.177 0 0 0 .8.5c1.4.5 2.9.7 4.4 1.1a6.87 6.87 0 0 1 3.4 2 4.467 4.467 0 0 1 .5 3.9 4.568 4.568 0 0 1-2.9 3 10.717 10.717 0 0 1-4.7.6 7.44 7.44 0 0 1-4.4-1.4 4.872 4.872 0 0 1-1.8-4h4.1c.1.6.2 1.4.8 1.7a4.77 4.77 0 0 0 2.9.6 3.077 3.077 0 0 0 1.9-.6 1.135 1.135 0 0 0-.4-1.8 37.648 37.648 0 0 0-4.8-1.3 7.814 7.814 0 0 1-2.9-1.4 3.356 3.356 0 0 1-1.1-2.3 4.462 4.462 0 0 1 1.5-4.1zm-32.1-.1a6.44 6.44 0 0 1 4.3-1.5 9.663 9.663 0 0 1 5.5 1.2 3.816 3.816 0 0 1 1.6 3.3v8.3a4.678 4.678 0 0 0 .2 1.7 1.057 1.057 0 0 0 .7.6v.6h-4.3a5.84 5.84 0 0 1-.4-1.8 6.667 6.667 0 0 1-4.1 2.2 5.27 5.27 0 0 1-4.2-1.2 3.947 3.947 0 0 1-1.2-2.5 5.38 5.38 0 0 1 .5-3.1 4.213 4.213 0 0 1 2.6-2.1 37.013 37.013 0 0 1 4.8-.9 1.817 1.817 0 0 0 1.5-1 1.536 1.536 0 0 0-.5-1.6 2.822 2.822 0 0 0-1.5-.4 3.778 3.778 0 0 0-2.1.4 2.4 2.4 0 0 0-.9 1.7h-3.9a5.11 5.11 0 0 1 1.4-3.9zm66.8-.8a9.04 9.04 0 0 1 3.7-.7 10.36 10.36 0 0 1 3.9.7 3.38 3.38 0 0 1 1.8 1.3 4.02 4.02 0 0 1 .8 2.6v8.4a3.887 3.887 0 0 0 .2 1.5 1.057 1.057 0 0 0 .7.6v.6h-4.3a5.84 5.84 0 0 1-.4-1.8 9.236 9.236 0 0 1-2.2 1.7 6.38 6.38 0 0 1-3.1.6 5.365 5.365 0 0 1-3.2-1.3 4.2 4.2 0 0 1-1.2-2.6 5.333 5.333 0 0 1 .4-2.8 4.183 4.183 0 0 1 2.5-2.2 18.606 18.606 0 0 1 4.1-.8 4.657 4.657 0 0 0 2-.6 1.37 1.37 0 0 0-.3-2.3 5.105 5.105 0 0 0-2.1-.3 2.193 2.193 0 0 0-1.7.7 3.36 3.36 0 0 0-.5 1.4h-3.9a6.683 6.683 0 0 1 1-3.1 5.48 5.48 0 0 1 1.8-1.6z" fill="#f8fbff"/><path d="M145.9 73.4a3.115 3.115 0 0 1 2.5.7 3.84 3.84 0 0 1 1.1 2.3 8.744 8.744 0 0 1-.1 3.6 4.45 4.45 0 0 1-1.2 2.1 3.26 3.26 0 0 1-2.5.6 2.47 2.47 0 0 1-1.9-1.2 5.687 5.687 0 0 1-.9-3.8 5.284 5.284 0 0 1 1-3.2 2.55 2.55 0 0 1 2-1.1zm-84.3 5.9c1.4-.6 3-.4 4.3-1.2a6.81 6.81 0 0 1-.5 3.5 3.52 3.52 0 0 1-2.2 1.4 3.04 3.04 0 0 1-2.1-.3 2.06 2.06 0 0 1-.6-2 2.208 2.208 0 0 1 1.1-1.4zm68.5-.6a5.782 5.782 0 0 0 1.4-.5 7.34 7.34 0 0 1-.4 3.3 3.2 3.2 0 0 1-2.3 1.6 2.854 2.854 0 0 1-2.2-.4c-.6-.4-.6-1.2-.6-1.9a2.094 2.094 0 0 1 1.1-1.5c1-.3 2-.4 3-.6z" fill="#0b7bff"/><path d="M156.6 81.3h4.3v4.2h-4.3z" fill="#f8fbff"/></svg>