<svg data-name="whiteback" xmlns="http://www.w3.org/2000/svg" width="400" height="300" viewBox="0 0 400 300"><title>sponsor_silver_sakurainternet</title><path d="M121.64 106.214a32.456 32.456 0 0 0-45.44 5.105l-15.19 18.75a7.67 7.67 0 0 0 5.962 12.5H111.4a13.04 13.04 0 0 1 12.777 10.33l.267 1.26 2.068-2.556a32.216 32.216 0 0 0-4.774-45.31z" fill="#f57"/><path d="M34.106 192.728a32.443 32.443 0 0 0 45.445-5.105l15.185-18.75a7.67 7.67 0 0 0-5.96-12.5H44.348a13.04 13.04 0 0 1-12.757-10.332l-.267-1.258-2.068 2.555a32.216 32.216 0 0 0 4.753 45.312z" fill="#808088" opacity=".4" style="isolation:isolate"/><path d="M265.335 110.627v24.767c0 7.768 5.737 13.5 15.877 13.5 9.55 0 15.778-5.213 15.778-13.715v-24.553h-5.54v22.966c0 8.062-3.45 10.664-9.71 10.664-6.55 0-9.142-3.332-9.142-10.828v-22.8zM163.365 119.6c0-3.08 2.115-4.88 6.233-4.88 4.487 0 7.44 1.25 11.113 3.65v-6.083a28.838 28.838 0 0 0-11.145-2.195c-8.2 0-14.038 4.038-14.038 10.116 0 12.45 19.115 10.44 19.115 18.806 0 3.322-2.438 5.194-5.947 5.194-5.175 0-9.794-2.588-13.1-5.33v6.247c3.743 2.686 8.544 3.71 13.57 3.71 8.053 0 13.247-4.21 13.247-10.518.068-13.31-19.047-10.69-19.047-18.717zM336.524 121.707c0-8.2-6.883-11.08-13.523-11.08h-16.8v37.668h7.262v-15.012h6.93l8.572 15.01h8.366l-9.06-15.885a10.648 10.648 0 0 0 8.254-10.7zm-23.045-6.434h7.12c4.862 0 8.123 2.2 8.123 6.766 0 4.865-3.88 6.55-8.123 6.55h-7.117zM250.764 148.294h9.082l-15.727-20.958 14.828-16.71h-6.19l-18.447 20.79v-20.79h-7.26v37.668h7.26v-9.91l4.887-5.503 11.567 15.414M214.093 148.294h7.79l-14.715-37.94h-7.38l-14.716 37.936h5.943l3.87-9.97h15.338zm-17.41-14.6l5.87-15.147 5.878 15.147zM370.135 148.294h7.79l-14.715-37.94h-7.38l-14.715 37.936h5.943l3.87-9.97h15.338zm-17.41-14.6l5.88-15.147 5.878 15.147zM158.148 172.252h6.888v27.982h-6.888z" fill="#808088"/><circle cx="161.592" cy="164.934" r="4.09" fill="#808088"/><path d="M238.26 171.658c-8.422 0-13.372 5.97-13.372 14.506v.27c0 8.892 5.615 14.366 14.3 14.366a19.653 19.653 0 0 0 10.294-2.75v-4.764a16.443 16.443 0 0 1-10.2 3.556c-4.02 0-6.972-2.775-6.972-9.087h18.83c.007-10.014-3.792-16.097-12.88-16.097zm-5.867 12.115c.22-4.9 1.745-8.137 5.868-8.137 3.913 0 5.34 3.57 5.462 8.132zM322.936 171.658c-8.423 0-13.373 5.97-13.373 14.506v.27c0 8.892 5.615 14.366 14.3 14.366a19.653 19.653 0 0 0 10.294-2.75v-4.764a16.443 16.443 0 0 1-10.2 3.556c-4.02 0-6.972-2.775-6.972-9.087h18.83c.003-10.014-3.797-16.097-12.88-16.097zm-5.868 12.115c.22-4.9 1.764-8.137 5.868-8.137 3.912 0 5.34 3.57 5.46 8.132zM212.675 192.663v-16.43h8.114v-3.98h-8.115v-8.288h-6.888v8.287h-3.743v3.982h3.743v16.845c0 4.533 3.743 7.734 9.232 7.734a10.093 10.093 0 0 0 5.834-1.474v-3.49a11.754 11.754 0 0 1-4.3.762 3.68 3.68 0 0 1-3.88-3.95zM188.69 171.658a12.526 12.526 0 0 0-9.15 4.735v-4.14h-6.887v27.976h6.888v-19.6a7.506 7.506 0 0 1 6.285-4.278 4.062 4.062 0 0 1 4.127 4v19.885h6.888V178.91c0-3.425-2.38-7.252-8.15-7.252zM295.534 171.658a12.526 12.526 0 0 0-9.148 4.735v-4.14H279.5v27.976h6.888v-19.6a7.506 7.506 0 0 1 6.284-4.278 4.062 4.062 0 0 1 4.127 4v19.885h6.887V178.91c0-3.425-2.387-7.252-8.153-7.252zM264.25 177.193v-4.94h-6.89v27.98h6.89v-18.777c2.844-3.093 6.157-4.253 10.4-4.253v-5.222a12.812 12.812 0 0 0-10.4 5.213zM350.365 192.663v-16.43h8.114v-3.98h-8.115v-8.288h-6.888v8.287h-3.743v3.982h3.743v16.845c0 4.533 3.743 7.734 9.232 7.734a10.093 10.093 0 0 0 5.834-1.474v-3.49a11.754 11.754 0 0 1-4.3.762 3.682 3.682 0 0 1-3.88-3.95z" fill="#808088"/></svg>