<svg data-name="レイヤー 1" xmlns="http://www.w3.org/2000/svg" width="200" height="150" viewBox="0 0 200 150"><title>rally</title><path d="M76.57 53.206a2.31 2.31 0 0 0-1.388-2.127L39.542 35.6a2.308 2.308 0 0 0-3.227 2.118v46.325a2.31 2.31 0 0 0 4.618 0V69.87L75.165 55.32a2.31 2.31 0 0 0 1.406-2.116M121.137 95.437h-8.258V73.212a2.31 2.31 0 0 0-4.62 0v24.534a2.31 2.31 0 0 0 2.31 2.308h10.567a2.31 2.31 0 1 0 0-4.618M142.06 95.437h-8.26V73.212a2.31 2.31 0 0 0-4.618 0v24.534a2.31 2.31 0 0 0 2.308 2.308h10.57a2.31 2.31 0 1 0 0-4.618M93.418 72.46a2.31 2.31 0 0 0-4.365 0l-8.46 24.533a2.308 2.308 0 1 0 4.363 1.507l6.28-18.206 6.28 18.206a2.31 2.31 0 0 0 4.364-1.506zM162.546 71.222a2.31 2.31 0 0 0-3.16.82l-6.142 10.44-6.144-10.44a2.31 2.31 0 0 0-3.98 2.34l7.813 13.28v10.083a2.31 2.31 0 0 0 4.618 0v-10.08l7.814-13.282a2.31 2.31 0 0 0-.82-3.16" fill="#231815"/><path d="M76.357 103.556a2.3 2.3 0 0 0-.672-1.59l-7.488-7.49A12.355 12.355 0 0 0 63.005 70.9H53.3a2.31 2.31 0 0 0-2.308 2.308v36.762h-2.056a2.31 2.31 0 1 0 0 4.618H53.3a2.31 2.31 0 0 0 2.31-2.31V75.522h7.393a7.748 7.748 0 0 1 0 15.5h-1.888a2.31 2.31 0 1 0 0 4.62h1.707l7.965 7.964-1.428 1.427a2.31 2.31 0 1 0 3.264 3.266l3.06-3.06a2.3 2.3 0 0 0 .67-1.585v-.046-.042" fill="#231815"/><path d="M42.933 42.11a1.328 1.328 0 0 0-2 1.313V62.67A1.34 1.34 0 0 0 42.94 64l23.46-9.972c1.1-.47 1.107-1.245.007-1.722z" fill="#87cefa"/></svg>