<svg xmlns="http://www.w3.org/2000/svg" width="200" height="150" viewBox="0 0 200 150"><path fill="#fff" d="M147.253 109.365l-94.416-.15 13.04-68.613h81.376v68.763"/><path d="M158.43 75.03a19.748 19.748 0 0 0 5.6-20.8 20.524 20.524 0 0 0-16.752-13.63l-9.9 52.088h-61.1l-3.14 16.525h-20.3c-1.446 7.31 1.14 15.55 7.565 20.22a19.748 19.748 0 0 0 21.512 1.123 19.748 19.748 0 0 0 36.11.02 19.75 19.75 0 0 0 29.228-21.212 19.75 19.75 0 0 0 11.176-34.336" fill="#ee464c"/><path fill="#ee464c" d="M123.423 58.397h-40.39l-3.14 16.53h40.387l3.143-16.53"/><path d="M147.278 40.6a20.328 20.328 0 0 0-7.678-20.04 19.755 19.755 0 0 0-21.515-1.122 19.75 19.75 0 0 0-36.11-.02 19.752 19.752 0 0 0-29.228 21.21A19.75 19.75 0 0 0 41.57 74.97a19.752 19.752 0 0 0-5.6 20.8c2.447 7.542 9.482 12.54 16.867 13.45L65.877 40.6z" fill="#77c9b5"/></svg>