<svg xmlns="http://www.w3.org/2000/svg" width="640" height="480" viewBox="0 0 640 480"><title>sponsor_bronze_cpi</title><g data-name="CPI(R)"><g fill="#231815"><path d="M369.994 204.045h-45.318a20.454 20.454 0 0 0-20.43 20.43v30.206a20.453 20.453 0 0 0 20.43 20.433h45.32a5.327 5.327 0 1 0 0-10.655h-45.32a9.786 9.786 0 0 1-9.772-9.777v-30.2a9.785 9.785 0 0 1 9.773-9.775h45.32a5.328 5.328 0 1 0 0-10.656zM467.38 209.376v60.414a5.33 5.33 0 0 0 10.66 0v-60.414a5.33 5.33 0 0 0-10.66 0zM406.652 204.05a20.456 20.456 0 0 0-20.434 20.43v45.31a5.33 5.33 0 0 0 10.658 0v-24.88h39.987a20.43 20.43 0 1 0 0-40.86zm-9.776 20.43a9.787 9.787 0 0 1 9.776-9.774h30.212a9.774 9.774 0 1 1 0 19.548h-39.988z"/></g><g fill="#c2da70"><path d="M154.118 214.45c-1.336.726-2.325.086-2.207-1.43l1.655-20.97a7.8 7.8 0 0 1 2.283-4.573l51.636-45.07v43.01zM207.484 199.157v40.736l-55.738 9.9a2.035 2.035 0 0 1-2.508-2.263l1.582-20.05a5.15 5.15 0 0 1 2.74-3.892zM149.477 278.76a3.677 3.677 0 0 1-2.4-3.6l1.108-14.24a3.4 3.4 0 0 1 2.97-3l56.33-5.232v44.9z"/></g><g fill="#0098d8"><path d="M260.845 214.45c1.336.726 2.33.086 2.208-1.43l-1.653-20.97a7.85 7.85 0 0 0-2.292-4.573l-51.623-45.07v43.01zM207.483 199.157v40.736l55.738 9.9a2.03 2.03 0 0 0 2.5-2.263l-1.582-20.05a5.148 5.148 0 0 0-2.738-3.892zM265.483 278.76a3.7 3.7 0 0 0 2.4-3.6l-1.123-14.24a3.39 3.39 0 0 0-2.955-3l-56.325-5.232v44.9z"/></g><g fill="#231815"><path d="M501.2 265.98h.356a3.262 3.262 0 1 0 0-6.523h-4.824a3.265 3.265 0 0 0-3.26 3.263v7.236a.85.85 0 0 0 1.7 0v-3.974h3.618l4.575 4.576a.85.85 0 0 0 1.2-1.2zm-6.028-1.7v-1.56a1.562 1.562 0 0 1 1.56-1.56h4.824a1.56 1.56 0 0 1 0 3.122z"/><path d="M489.363 265.33a9.785 9.785 0 1 0 9.786-9.788 9.8 9.8 0 0 0-9.787 9.787zm1.314 0a8.472 8.472 0 1 1 8.472 8.47 8.48 8.48 0 0 1-8.473-8.47z"/></g></g></svg>