<svg id="ec1f79b1-e63e-4818-8e5f-770ea89dc728" data-name="9e36e239-64e1-49a7-adc6-e5cdb62c1676" xmlns="http://www.w3.org/2000/svg" xmlns:xlink="http://www.w3.org/1999/xlink" width="200" height="150" viewBox="0 0 200 150">
  <defs>
    <linearGradient id="75934a92-6488-4ce2-9503-60635777d6ed" data-name="名称未設定グラデーション" x1="28.155" y1="13.516" x2="47.813" y2="33.175" gradientTransform="matrix(1, 0, 0, -1, 0, 82)" gradientUnits="userSpaceOnUse">
      <stop offset="0" stop-color="#0094ff"/>
      <stop offset="1" stop-color="#84cfff"/>
    </linearGradient>
  </defs>
  <title>アートボード 1</title>
  <g>
    <path d="M37.971,78.3s-7.029-7.73-8.9-9.785c-3.474-3.8-4.652-6.775-4.652-10.311a13.557,13.557,0,0,1,27.115,0c0,3.536-1.182,6.51-4.652,10.311C45,70.572,37.971,78.3,37.971,78.3Z" fill="url(#75934a92-6488-4ce2-9503-60635777d6ed)"/>
    <circle cx="37.91" cy="57.416" r="6.97" fill="#fff"/>
    <path d="M120.7,107.167a2.318,2.318,0,0,1-2.139-3.2L130.8,74.336H70.9a2.314,2.314,0,1,1-.1-4.627h63.463a2.314,2.314,0,0,1,2.139,3.2l-13.564,32.827A2.316,2.316,0,0,1,120.7,107.167Z" fill="#b8bcbe"/>
    <path d="M143.174,107.167a2.315,2.315,0,0,1-2.112-3.261l2.493-5.567a2.314,2.314,0,0,1,2.111-1.369h14.912a2.314,2.314,0,0,1,0,4.628H147.165l-1.88,4.2A2.314,2.314,0,0,1,143.174,107.167Z" fill="#b8bcbe"/>
    <path d="M164.717,92.362H149.8a2.315,2.315,0,0,1-2.154-3.16l7.081-18.026a2.318,2.318,0,0,1,2.156-1.467H172.45a2.314,2.314,0,0,1,.1,4.627H158.462l-5.264,13.4h11.518a2.314,2.314,0,0,1,0,4.628Z" fill="#b8bcbe"/>
    <path d="M146.045,64.646c-2.072-3.076-5.665-4.769-10.122-4.769H68.333l1-2.754c.459-1.132-.41-1.5-1.61-.878l-9.176,4.367c-1.2.625-1.3,1.511-.6,2.135l5.7,5.15c.691.625,1.634.209,2.09-.923l.9-2.47h69.281c2.869,0,5.1.968,6.282,2.725s1.237,4.188.156,6.844L130.2,103.979a2.315,2.315,0,0,0,4.253,1.829q.018-.042.035-.085l12.159-29.906C148.328,71.688,148.112,67.72,146.045,64.646Z" fill="#9e9e9f"/>
    <g>
      <path d="M64.7,44.588V52.1h-.811v-.61H56.9v-.744H63.9V45.331H57.008v-.743Z" fill="#2ca6ff"/>
      <path d="M77.284,44.265a.352.352,0,0,1-.143.111c-.432,4.34-1.911,6.671-5.616,8.17a4.73,4.73,0,0,0-.558-.6c3.544-1.443,4.93-3.552,5.3-7.193h-6.34v3.065H69.16V44h7.358l.122-.089Z" fill="#2ca6ff"/>
      <path d="M80.679,47.284h9.266v.788H81.1a.506.506,0,0,1-.354.211Z" fill="#2ca6ff"/>
      <path d="M98,49.138l.4,3.486-.8.088-.389-3.474-4.162.532-.1-.732,4.186-.534L96.847,46l-3.486.455-.1-.743,3.5-.445-.244-2.2,1.083-.039c0,.111-.1.2-.255.245l.2,1.886,3.375-.444.087.755-3.373.432.288,2.487,4.173-.522.1.733Z" fill="#2ca6ff"/>
      <path d="M105.977,43.931a13.773,13.773,0,0,1,3.306,1.511l-.419.7A14.246,14.246,0,0,0,105.62,44.6Zm-.044,7.692c3.941-1.221,6.561-3.429,7.892-6.5a4.19,4.19,0,0,0,.723.455,12.721,12.721,0,0,1-7.861,6.661.355.355,0,0,1-.154.254Z" fill="#2ca6ff"/>
      <path d="M125.841,45.242a.594.594,0,0,1-.166.167,11.485,11.485,0,0,1-6.007,7.426,2.612,2.612,0,0,0-.564-.611,10.286,10.286,0,0,0,5.583-6.537h-3.919a11.107,11.107,0,0,1-2.452,2.708,3.62,3.62,0,0,0-.622-.5,11.079,11.079,0,0,0,3.519-4.863l1.044.289c-.036.111-.169.156-.312.144a16.351,16.351,0,0,1-.732,1.477h3.86l.135-.067Zm-1.378-2.553a8.26,8.26,0,0,1,1.456,1.576l-.412.356a7.976,7.976,0,0,0-1.43-1.576Zm1.61-.322a7.977,7.977,0,0,1,1.456,1.576l-.412.344a7.85,7.85,0,0,0-1.433-1.564Z" fill="#2ca6ff"/>
      <path d="M137.236,44.176a.227.227,0,0,1-.144.123,17.081,17.081,0,0,1-2.22,3.818,40.852,40.852,0,0,1,4.064,3.763l-.678.589a36.162,36.162,0,0,0-3.9-3.731,17.47,17.47,0,0,1-4.272,3.731,4.08,4.08,0,0,0-.578-.6,15.9,15.9,0,0,0,6.5-7.247h-5.449v-.756h5.881l.146-.056Z" fill="#2ca6ff"/>
      <path d="M141.261,48.516c.845-.888,2.6-2.842,3.231-3.519a1.234,1.234,0,0,1,.866-.421,1.4,1.4,0,0,1,.9.421,55.289,55.289,0,0,1,5.418,6.05l-.668.61a48.867,48.867,0,0,0-5.137-5.971c-.19-.178-.334-.278-.477-.278s-.279.111-.456.278c-.522.565-2.144,2.43-2.887,3.23a.2.2,0,0,1,.011.078.318.318,0,0,1-.111.232Zm8.415-5.627a1.24,1.24,0,1,1-.017,0Zm.865,1.243a.874.874,0,1,0-.866.876h0A.874.874,0,0,0,150.541,44.132Z" fill="#2ca6ff"/>
      <path d="M153.98,47.284h9.266v.788H154.4a.51.51,0,0,1-.354.211Z" fill="#2ca6ff"/>
      <path d="M173.89,44.176a.241.241,0,0,1-.146.123,17.251,17.251,0,0,1-2.218,3.818,41.156,41.156,0,0,1,4.06,3.763l-.678.589a36.08,36.08,0,0,0-3.9-3.731,17.484,17.484,0,0,1-4.274,3.731,4.162,4.162,0,0,0-.576-.6,15.93,15.93,0,0,0,6.5-7.247h-5.451v-.756H173.1l.142-.056Z" fill="#2ca6ff"/>
    </g>
    <g>
      <path d="M37.971,83.146c-6.584,0-10.752,6.151-10.752,12.065,0,7.058,4.523,12.421,10.752,12.421s10.753-5.362,10.753-12.42C48.724,89.3,44.556,83.146,37.971,83.146Zm0,22.2c-4.707,0-8.124-4.361-8.124-10.1,0-4.809,3.148-9.812,8.124-9.812s8.123,5,8.123,9.812C46.1,100.985,42.678,105.346,37.971,105.346Z" fill="#2ca6ff"/>
      <path d="M68.593,92.483V91.9c0-2.607.536-4.518,1.5-5.718,1.651-2.048,4.4-2.112,6.728-.669l1.2-1.736a7.427,7.427,0,0,0-9.5.592c-1.933,1.932-2.248,5.048-2.326,7.531,0,.154-.01.351-.014.581H57.552V91.9c0-2.607.535-4.518,1.5-5.718,1.651-2.048,4.4-2.112,6.726-.669l1.2-1.736a7.427,7.427,0,0,0-9.5.592c-1.934,1.931-2.25,5.05-2.328,7.531-.005.154-.01.351-.014.581H50.92v2.161l4.189.021c-.039,4.7-.041,12.967-.041,12.967h2.59s-.076-7.4-.1-12.954l8.591.044c-.04,4.705-.041,12.911-.041,12.911H68.7s-.076-7.355-.1-12.9l8.946.046-.081,12.852h2.591L79.933,92.48Z" fill="#2ca6ff"/>
      <path d="M95.842,91.106l1.1-2.365c-7.412-3.076-13.011,2.246-13.011,9.265,0,7.059,5.757,11.632,12.894,8.754l-1.263-2.248c-5.442,2.168-9.385-1.341-9.385-6.466S90.046,88.5,95.842,91.106Z" fill="#2ca6ff"/>
      <path d="M108.025,87.85c-5.305,0-8.949,4.491-8.949,10.156,0,7.059,5.757,11.632,12.894,8.754l-1.263-2.248c-5.416,2.158-9.34-1.307-9.381-6.391C103.25,98.1,114.717,98,115.005,98a.53.53,0,0,0,.514-.545v-.007C115.519,92.761,113.547,87.85,108.025,87.85Zm-6.367,7.607c.8-3.005,3.016-5.275,6.447-5.275,3.315,0,4.944,2.978,4.944,5.355Z" fill="#2ca6ff"/>
    </g>
  </g>
</svg>
