<svg data-name="レイヤー 1" xmlns="http://www.w3.org/2000/svg" width="640" height="480" viewBox="0 0 640 480"><title>アートボード 1</title><path d="M71.94 265.73a4.39 4.39 0 0 1-4.376 4.387h-16.98a4.4 4.4 0 0 1-4.378-4.385V214.26a4.4 4.4 0 0 1 4.378-4.375h16.978a4.39 4.39 0 0 1 4.377 4.375zm120.14-55.847h-54.758a15.38 15.38 0 0 0-15.338 15.332v29.57a15.38 15.38 0 0 0 15.338 15.33h54.76a15.38 15.38 0 0 0 15.33-15.33v-29.57a15.377 15.377 0 0 0-15.33-15.33zm-10.408 47.09a4.39 4.39 0 0 1-4.377 4.38H152.1a4.39 4.39 0 0 1-4.382-4.38v-33.95a4.39 4.39 0 0 1 4.382-4.38h25.19a4.39 4.39 0 0 1 4.375 4.38zm128.885-47.09h-65.7a4.39 4.39 0 0 0-4.377 4.375v51.475a4.39 4.39 0 0 0 4.376 4.386h65.7a15.38 15.38 0 0 0 15.334-15.333v-29.57a15.38 15.38 0 0 0-15.334-15.332zm-10.4 47.09a4.39 4.39 0 0 1-4.382 4.38H270.6a4.39 4.39 0 0 1-4.384-4.38v-33.95a4.39 4.39 0 0 1 4.384-4.38h25.174a4.39 4.39 0 0 1 4.382 4.38zm209.712-44.9a2.177 2.177 0 0 0-2.162-2.193H418.33a12.658 12.658 0 0 0-2.1.212s-.093.02-.51.425a2.2 2.2 0 0 0-.65 1.557v4.378a2.212 2.212 0 0 0 2.2 2.19h30.147a2.158 2.158 0 0 1 1.547.64 2.188 2.188 0 0 1 .647 1.544v44.9a4.373 4.373 0 0 0 4.36 4.385h16.995a4.373 4.373 0 0 0 4.382-4.362v-44.92a2.185 2.185 0 0 1 .64-1.546 2.156 2.156 0 0 1 1.548-.64h30.143a2.165 2.165 0 0 0 1.55-.648c.412-.4.433-.5.433-.5a13.012 13.012 0 0 0 .207-2.1z" fill="#001eaa"/><path d="M106.85 245.222a8.714 8.714 0 0 1-7.586 4.38h-15.5a3.01 3.01 0 0 1-2.61-4.515l5.946-10.322a8.827 8.827 0 0 1 7.587-4.375h15.525a3.014 3.014 0 0 1 2.607 4.52z" fill="#aa00b4"/><path d="M407.23 267.928a4.345 4.345 0 0 0 1.606 1.6 4.285 4.285 0 0 0 2.184.59h19.968a2.19 2.19 0 0 0 1.894-3.288l-26.554-46a21.95 21.95 0 0 0-18.967-10.945h-10.39a21.924 21.924 0 0 0-18.966 10.944l-26.56 46a2.23 2.23 0 0 0 0 2.193 2.207 2.207 0 0 0 1.895 1.093h19.97a4.33 4.33 0 0 0 2.19-.59 4.4 4.4 0 0 0 1.607-1.6l3.5-6.08a4.365 4.365 0 0 1 3.8-2.18h35.523a4.34 4.34 0 0 1 2.193.58 4.425 4.425 0 0 1 1.607 1.6zM370.177 250.9a2.188 2.188 0 0 1-1.894-3.278l11.984-20.767a2.186 2.186 0 0 1 3.8 0l11.987 20.768a2.188 2.188 0 0 1-1.895 3.278zm151.048 10.95a4.365 4.365 0 0 1 3.8-2.182h35.532a4.35 4.35 0 0 1 2.186.582 4.415 4.415 0 0 1 1.6 1.6l3.506 6.08a4.334 4.334 0 0 0 1.6 1.6 4.29 4.29 0 0 0 2.188.588h19.965a2.19 2.19 0 0 0 1.894-3.287l-26.56-46a21.924 21.924 0 0 0-18.967-10.944h-10.38a21.936 21.936 0 0 0-18.967 10.944l-26.558 46a2.19 2.19 0 0 0 1.894 3.287h19.963a4.333 4.333 0 0 0 2.19-.59 4.4 4.4 0 0 0 1.608-1.6zm9.567-10.95a2.188 2.188 0 0 1-1.893-3.278l11.987-20.767a2.184 2.184 0 0 1 3.793 0l11.987 20.768a2.188 2.188 0 0 1-1.895 3.278z" fill="#001eaa"/></svg>