<svg xmlns="http://www.w3.org/2000/svg" width="32" height="32" viewBox="0 0 32 32"><defs><style>.a{fill:#fff;}</style></defs><title>twitter-icon</title><path class="a" d="M16,.25A15.75,15.75,0,1,0,31.75,16,15.75,15.75,0,0,0,16,.25Zm.3,13.375.015,0a3.155,3.155,0,0,1,5.373-2.876,6.308,6.308,0,0,0,1.669-.586c.11-.053.219-.106.328-.165a3.153,3.153,0,0,1-.995,1.448,2.938,2.938,0,0,1-.388.267l.028-.005c-.01.006-.016.014-.027.02a6.326,6.326,0,0,0,1.484-.365c.1-.036.211-.074.316-.114a6.445,6.445,0,0,1-1.562,1.616c.006.135.009.271.009.409A8.969,8.969,0,0,1,8.747,20.829a6.347,6.347,0,0,0,3.975-.838,6.676,6.676,0,0,0,.694-.452l-.016,0a.089.089,0,0,1,.016-.013,3.149,3.149,0,0,1-2.742-1.707,2.971,2.971,0,0,1-.195-.481,3.171,3.171,0,0,0,.584.055,3.236,3.236,0,0,0,.607-.065c.073-.011.149-.02.221-.032-.009,0-.017-.006-.028-.008.01,0,.022,0,.031-.007a3.154,3.154,0,0,1-2.53-3.092v-.035l0,0a3.118,3.118,0,0,0,1.121.366c.1.017.2.032.3.04a.14.14,0,0,1-.02-.014l.028,0a3.139,3.139,0,0,1-1.073-4.017c.033-.063.064-.128.1-.189a8.956,8.956,0,0,0,5.709,3.208c.256.037.513.07.772.086Z"/></svg>